<svg width="165" height="64" viewBox="0 0 165 64" fill="none" xmlns="http://www.w3.org/2000/svg">
<mask id="path-1-outside-1_47_15" maskUnits="userSpaceOnUse" x="-1" y="3" width="58" height="21" fill="black">
<rect fill="white" x="-1" y="3" width="58" height="21"/>
<path d="M6.552 22L0.888 5.2H2.712L8.016 21.016H7.104L12.576 5.2H14.208L19.608 21.016H18.744L24.096 5.2H25.8L20.136 22H18.264L13.104 7H13.584L8.4 22H6.552ZM33.0874 22.12C31.7754 22.12 30.6234 21.848 29.6314 21.304C28.6394 20.744 27.8634 19.984 27.3034 19.024C26.7434 18.048 26.4634 16.936 26.4634 15.688C26.4634 14.44 26.7274 13.336 27.2554 12.376C27.7994 11.416 28.5354 10.664 29.4634 10.12C30.4074 9.56 31.4634 9.28 32.6314 9.28C33.8154 9.28 34.8634 9.552 35.7754 10.096C36.7034 10.624 37.4314 11.376 37.9594 12.352C38.4874 13.312 38.7514 14.424 38.7514 15.688C38.7514 15.768 38.7434 15.856 38.7274 15.952C38.7274 16.032 38.7274 16.12 38.7274 16.216H27.7594V14.944H37.8154L37.1434 15.448C37.1434 14.536 36.9434 13.728 36.5434 13.024C36.1594 12.304 35.6314 11.744 34.9594 11.344C34.2874 10.944 33.5114 10.744 32.6314 10.744C31.7674 10.744 30.9914 10.944 30.3034 11.344C29.6154 11.744 29.0794 12.304 28.6954 13.024C28.3114 13.744 28.1194 14.568 28.1194 15.496V15.76C28.1194 16.72 28.3274 17.568 28.7434 18.304C29.1754 19.024 29.7674 19.592 30.5194 20.008C31.2874 20.408 32.1594 20.608 33.1354 20.608C33.9034 20.608 34.6154 20.472 35.2714 20.2C35.9434 19.928 36.5194 19.512 36.9994 18.952L37.9594 20.056C37.3994 20.728 36.6954 21.24 35.8474 21.592C35.0154 21.944 34.0954 22.12 33.0874 22.12ZM48.7238 22.12C47.6198 22.12 46.6278 21.872 45.7478 21.376C44.8678 20.864 44.1718 20.128 43.6598 19.168C43.1478 18.208 42.8918 17.048 42.8918 15.688C42.8918 14.312 43.1478 13.152 43.6598 12.208C44.1878 11.248 44.8918 10.52 45.7718 10.024C46.6518 9.528 47.6358 9.28 48.7238 9.28C49.9238 9.28 50.9958 9.552 51.9398 10.096C52.8998 10.624 53.6518 11.368 54.1958 12.328C54.7398 13.288 55.0118 14.408 55.0118 15.688C55.0118 16.952 54.7398 18.072 54.1958 19.048C53.6518 20.008 52.8998 20.76 51.9398 21.304C50.9958 21.848 49.9238 22.12 48.7238 22.12ZM42.2198 22V4.192H43.9238V13.12L43.6838 15.664L43.8518 18.208V22H42.2198ZM48.6038 20.608C49.4998 20.608 50.2998 20.408 51.0038 20.008C51.7078 19.592 52.2678 19.016 52.6838 18.28C53.0998 17.528 53.3078 16.664 53.3078 15.688C53.3078 14.696 53.0998 13.832 52.6838 13.096C52.2678 12.36 51.7078 11.792 51.0038 11.392C50.2998 10.976 49.4998 10.768 48.6038 10.768C47.7078 10.768 46.8998 10.976 46.1797 11.392C45.4758 11.792 44.9158 12.36 44.4998 13.096C44.0998 13.832 43.8998 14.696 43.8998 15.688C43.8998 16.664 44.0998 17.528 44.4998 18.28C44.9158 19.016 45.4758 19.592 46.1797 20.008C46.8998 20.408 47.7078 20.608 48.6038 20.608Z"/>
</mask>
<path d="M6.552 22L0.888 5.2H2.712L8.016 21.016H7.104L12.576 5.2H14.208L19.608 21.016H18.744L24.096 5.2H25.8L20.136 22H18.264L13.104 7H13.584L8.4 22H6.552ZM33.0874 22.12C31.7754 22.12 30.6234 21.848 29.6314 21.304C28.6394 20.744 27.8634 19.984 27.3034 19.024C26.7434 18.048 26.4634 16.936 26.4634 15.688C26.4634 14.44 26.7274 13.336 27.2554 12.376C27.7994 11.416 28.5354 10.664 29.4634 10.12C30.4074 9.56 31.4634 9.28 32.6314 9.28C33.8154 9.28 34.8634 9.552 35.7754 10.096C36.7034 10.624 37.4314 11.376 37.9594 12.352C38.4874 13.312 38.7514 14.424 38.7514 15.688C38.7514 15.768 38.7434 15.856 38.7274 15.952C38.7274 16.032 38.7274 16.12 38.7274 16.216H27.7594V14.944H37.8154L37.1434 15.448C37.1434 14.536 36.9434 13.728 36.5434 13.024C36.1594 12.304 35.6314 11.744 34.9594 11.344C34.2874 10.944 33.5114 10.744 32.6314 10.744C31.7674 10.744 30.9914 10.944 30.3034 11.344C29.6154 11.744 29.0794 12.304 28.6954 13.024C28.3114 13.744 28.1194 14.568 28.1194 15.496V15.76C28.1194 16.72 28.3274 17.568 28.7434 18.304C29.1754 19.024 29.7674 19.592 30.5194 20.008C31.2874 20.408 32.1594 20.608 33.1354 20.608C33.9034 20.608 34.6154 20.472 35.2714 20.2C35.9434 19.928 36.5194 19.512 36.9994 18.952L37.9594 20.056C37.3994 20.728 36.6954 21.24 35.8474 21.592C35.0154 21.944 34.0954 22.12 33.0874 22.12ZM48.7238 22.12C47.6198 22.12 46.6278 21.872 45.7478 21.376C44.8678 20.864 44.1718 20.128 43.6598 19.168C43.1478 18.208 42.8918 17.048 42.8918 15.688C42.8918 14.312 43.1478 13.152 43.6598 12.208C44.1878 11.248 44.8918 10.52 45.7718 10.024C46.6518 9.528 47.6358 9.28 48.7238 9.28C49.9238 9.28 50.9958 9.552 51.9398 10.096C52.8998 10.624 53.6518 11.368 54.1958 12.328C54.7398 13.288 55.0118 14.408 55.0118 15.688C55.0118 16.952 54.7398 18.072 54.1958 19.048C53.6518 20.008 52.8998 20.76 51.9398 21.304C50.9958 21.848 49.9238 22.12 48.7238 22.12ZM42.2198 22V4.192H43.9238V13.12L43.6838 15.664L43.8518 18.208V22H42.2198ZM48.6038 20.608C49.4998 20.608 50.2998 20.408 51.0038 20.008C51.7078 19.592 52.2678 19.016 52.6838 18.28C53.0998 17.528 53.3078 16.664 53.3078 15.688C53.3078 14.696 53.0998 13.832 52.6838 13.096C52.2678 12.36 51.7078 11.792 51.0038 11.392C50.2998 10.976 49.4998 10.768 48.6038 10.768C47.7078 10.768 46.8998 10.976 46.1797 11.392C45.4758 11.792 44.9158 12.36 44.4998 13.096C44.0998 13.832 43.8998 14.696 43.8998 15.688C43.8998 16.664 44.0998 17.528 44.4998 18.28C44.9158 19.016 45.4758 19.592 46.1797 20.008C46.8998 20.408 47.7078 20.608 48.6038 20.608Z" fill="white"/>
<path d="M6.552 22L5.60441 22.3195L5.83384 23H6.552V22ZM0.888 5.2V4.2H-0.504446L-0.0595948 5.51947L0.888 5.2ZM2.712 5.2L3.66011 4.88205L3.43138 4.2H2.712V5.2ZM8.016 21.016V22.016H9.40609L8.96411 20.698L8.016 21.016ZM7.104 21.016L6.15896 20.689L5.69986 22.016H7.104V21.016ZM12.576 5.2V4.2H11.8638L11.631 4.87304L12.576 5.2ZM14.208 5.2L15.1544 4.87689L14.9233 4.2H14.208V5.2ZM19.608 21.016V22.016H21.0061L20.5544 20.6929L19.608 21.016ZM18.744 21.016L17.7968 20.6955L17.3499 22.016H18.744V21.016ZM24.096 5.2V4.2H23.3787L23.1488 4.87946L24.096 5.2ZM25.8 5.2L26.7476 5.51947L27.1924 4.2H25.8V5.2ZM20.136 22V23H20.8542L21.0836 22.3195L20.136 22ZM18.264 22L17.3184 22.3253L17.5505 23H18.264V22ZM13.104 7V6H11.7025L12.1584 7.32529L13.104 7ZM13.584 7L14.5291 7.32664L14.9876 6H13.584V7ZM8.4 22V23H9.11244L9.34515 22.3266L8.4 22ZM7.49959 21.6805L1.83559 4.88052L-0.0595948 5.51947L5.60441 22.3195L7.49959 21.6805ZM0.888 6.2H2.712V4.2H0.888V6.2ZM1.76389 5.51795L7.06789 21.334L8.96411 20.698L3.66011 4.88205L1.76389 5.51795ZM8.016 20.016H7.104V22.016H8.016V20.016ZM8.04904 21.343L13.521 5.52696L11.631 4.87304L6.15896 20.689L8.04904 21.343ZM12.576 6.2H14.208V4.2H12.576V6.2ZM13.2616 5.52311L18.6616 21.3391L20.5544 20.6929L15.1544 4.87689L13.2616 5.52311ZM19.608 20.016H18.744V22.016H19.608V20.016ZM19.6912 21.3365L25.0432 5.52054L23.1488 4.87946L17.7968 20.6955L19.6912 21.3365ZM24.096 6.2H25.8V4.2H24.096V6.2ZM24.8524 4.88052L19.1884 21.6805L21.0836 22.3195L26.7476 5.51947L24.8524 4.88052ZM20.136 21H18.264V23H20.136V21ZM19.2096 21.6747L14.0496 6.67471L12.1584 7.32529L17.3184 22.3253L19.2096 21.6747ZM13.104 8H13.584V6H13.104V8ZM12.6389 6.67336L7.45485 21.6734L9.34515 22.3266L14.5291 7.32664L12.6389 6.67336ZM8.4 21H6.552V23H8.4V21ZM29.6314 21.304L29.1397 22.1749L29.1505 22.1808L29.6314 21.304ZM27.3034 19.024L26.436 19.5217L26.4396 19.5279L27.3034 19.024ZM27.2554 12.376L26.3853 11.8829L26.3792 11.8941L27.2554 12.376ZM29.4634 10.12L29.9691 10.9827L29.9736 10.9801L29.4634 10.12ZM35.7754 10.096L35.2631 10.9548L35.2719 10.9601L35.2808 10.9652L35.7754 10.096ZM37.9594 12.352L37.0798 12.8278L37.0832 12.8339L37.9594 12.352ZM38.7274 15.952L37.741 15.7876L37.7274 15.8692V15.952H38.7274ZM38.7274 16.216V17.216H39.7274V16.216H38.7274ZM27.7594 16.216H26.7594V17.216H27.7594V16.216ZM27.7594 14.944V13.944H26.7594V14.944H27.7594ZM37.8154 14.944L38.4154 15.744L40.8154 13.944H37.8154V14.944ZM37.1434 15.448H36.1434V17.448L37.7434 16.248L37.1434 15.448ZM36.5434 13.024L35.661 13.4946L35.6673 13.5064L35.6739 13.518L36.5434 13.024ZM34.9594 11.344L35.4709 10.4847L34.9594 11.344ZM30.3034 11.344L29.8008 10.4795L30.3034 11.344ZM28.6954 13.024L29.5777 13.4946L28.6954 13.024ZM28.7434 18.304L27.8728 18.7961L27.8792 18.8074L27.8859 18.8185L28.7434 18.304ZM30.5194 20.008L30.0353 20.883L30.0463 20.8891L30.0574 20.8949L30.5194 20.008ZM35.2714 20.2L34.8962 19.273L34.8884 19.2763L35.2714 20.2ZM36.9994 18.952L37.754 18.2958L36.9939 17.4218L36.2401 18.3012L36.9994 18.952ZM37.9594 20.056L38.7276 20.6962L39.2726 20.0422L38.714 19.3998L37.9594 20.056ZM35.8474 21.592L35.464 20.6684L35.4577 20.671L35.8474 21.592ZM33.0874 21.12C31.9164 21.12 30.9348 20.8783 30.1122 20.4272L29.1505 22.1808C30.3119 22.8177 31.6343 23.12 33.0874 23.12V21.12ZM30.123 20.4332C29.2813 19.9581 28.6355 19.323 28.1672 18.5201L26.4396 19.5279C27.0912 20.645 27.9974 21.5299 29.1398 22.1748L30.123 20.4332ZM28.1707 18.5263C27.7069 17.7179 27.4634 16.7809 27.4634 15.688H25.4634C25.4634 17.0911 25.7799 18.3781 26.436 19.5217L28.1707 18.5263ZM27.4634 15.688C27.4634 14.5848 27.6955 13.6508 28.1316 12.8579L26.3792 11.8941C25.7592 13.0212 25.4634 14.2952 25.4634 15.688H27.4634ZM28.1254 12.869C28.585 12.058 29.197 11.4353 29.9691 10.9827L28.9577 9.2573C27.8738 9.89269 27.0138 10.774 26.3854 11.883L28.1254 12.869ZM29.9736 10.9801C30.7532 10.5176 31.631 10.28 32.6314 10.28V8.28C31.2958 8.28 30.0616 8.60242 28.9532 9.25994L29.9736 10.9801ZM32.6314 10.28C33.6563 10.28 34.5233 10.5135 35.2631 10.9548L36.2877 9.23718C35.2034 8.59046 33.9745 8.28 32.6314 8.28V10.28ZM35.2808 10.9652C36.0397 11.3969 36.6372 12.0096 37.0798 12.8278L38.8389 11.8762C38.2256 10.7424 37.3671 9.8511 36.2699 9.22684L35.2808 10.9652ZM37.0832 12.8339C37.5182 13.625 37.7514 14.5664 37.7514 15.688H39.7514C39.7514 14.2816 39.4565 12.999 38.8356 11.8701L37.0832 12.8339ZM37.7514 15.688C37.7514 15.7026 37.7498 15.7347 37.741 15.7876L39.7138 16.1164C39.737 15.9773 39.7514 15.8334 39.7514 15.688H37.7514ZM37.7274 15.952C37.7274 15.9522 37.7274 15.9523 37.7274 15.9525C37.7274 15.9526 37.7274 15.9528 37.7274 15.9529C37.7274 15.9531 37.7274 15.9533 37.7274 15.9534C37.7274 15.9536 37.7274 15.9537 37.7274 15.9539C37.7274 15.954 37.7274 15.9542 37.7274 15.9543C37.7274 15.9545 37.7274 15.9547 37.7274 15.9548C37.7274 15.955 37.7274 15.9551 37.7274 15.9553C37.7274 15.9554 37.7274 15.9556 37.7274 15.9558C37.7274 15.9559 37.7274 15.9561 37.7274 15.9562C37.7274 15.9564 37.7274 15.9565 37.7274 15.9567C37.7274 15.9569 37.7274 15.957 37.7274 15.9572C37.7274 15.9573 37.7274 15.9575 37.7274 15.9576C37.7274 15.9578 37.7274 15.958 37.7274 15.9581C37.7274 15.9583 37.7274 15.9584 37.7274 15.9586C37.7274 15.9587 37.7274 15.9589 37.7274 15.9591C37.7274 15.9592 37.7274 15.9594 37.7274 15.9595C37.7274 15.9597 37.7274 15.9598 37.7274 15.96C37.7274 15.9602 37.7274 15.9603 37.7274 15.9605C37.7274 15.9606 37.7274 15.9608 37.7274 15.9609C37.7274 15.9611 37.7274 15.9613 37.7274 15.9614C37.7274 15.9616 37.7274 15.9617 37.7274 15.9619C37.7274 15.962 37.7274 15.9622 37.7274 15.9624C37.7274 15.9625 37.7274 15.9627 37.7274 15.9628C37.7274 15.963 37.7274 15.9631 37.7274 15.9633C37.7274 15.9635 37.7274 15.9636 37.7274 15.9638C37.7274 15.9639 37.7274 15.9641 37.7274 15.9642C37.7274 15.9644 37.7274 15.9646 37.7274 15.9647C37.7274 15.9649 37.7274 15.965 37.7274 15.9652C37.7274 15.9654 37.7274 15.9655 37.7274 15.9657C37.7274 15.9658 37.7274 15.966 37.7274 15.9661C37.7274 15.9663 37.7274 15.9665 37.7274 15.9666C37.7274 15.9668 37.7274 15.9669 37.7274 15.9671C37.7274 15.9673 37.7274 15.9674 37.7274 15.9676C37.7274 15.9677 37.7274 15.9679 37.7274 15.968C37.7274 15.9682 37.7274 15.9684 37.7274 15.9685C37.7274 15.9687 37.7274 15.9688 37.7274 15.969C37.7274 15.9692 37.7274 15.9693 37.7274 15.9695C37.7274 15.9696 37.7274 15.9698 37.7274 15.9699C37.7274 15.9701 37.7274 15.9703 37.7274 15.9704C37.7274 15.9706 37.7274 15.9707 37.7274 15.9709C37.7274 15.9711 37.7274 15.9712 37.7274 15.9714C37.7274 15.9715 37.7274 15.9717 37.7274 15.9718C37.7274 15.972 37.7274 15.9722 37.7274 15.9723C37.7274 15.9725 37.7274 15.9726 37.7274 15.9728C37.7274 15.973 37.7274 15.9731 37.7274 15.9733C37.7274 15.9734 37.7274 15.9736 37.7274 15.9738C37.7274 15.9739 37.7274 15.9741 37.7274 15.9742C37.7274 15.9744 37.7274 15.9746 37.7274 15.9747C37.7274 15.9749 37.7274 15.975 37.7274 15.9752C37.7274 15.9753 37.7274 15.9755 37.7274 15.9757C37.7274 15.9758 37.7274 15.976 37.7274 15.9761C37.7274 15.9763 37.7274 15.9765 37.7274 15.9766C37.7274 15.9768 37.7274 15.9769 37.7274 15.9771C37.7274 15.9773 37.7274 15.9774 37.7274 15.9776C37.7274 15.9777 37.7274 15.9779 37.7274 15.9781C37.7274 15.9782 37.7274 15.9784 37.7274 15.9785C37.7274 15.9787 37.7274 15.9789 37.7274 15.979C37.7274 15.9792 37.7274 15.9793 37.7274 15.9795C37.7274 15.9797 37.7274 15.9798 37.7274 15.98C37.7274 15.9801 37.7274 15.9803 37.7274 15.9805C37.7274 15.9806 37.7274 15.9808 37.7274 15.9809C37.7274 15.9811 37.7274 15.9813 37.7274 15.9814C37.7274 15.9816 37.7274 15.9817 37.7274 15.9819C37.7274 15.9821 37.7274 15.9822 37.7274 15.9824C37.7274 15.9825 37.7274 15.9827 37.7274 15.9829C37.7274 15.983 37.7274 15.9832 37.7274 15.9833C37.7274 15.9835 37.7274 15.9837 37.7274 15.9838C37.7274 15.984 37.7274 15.9841 37.7274 15.9843C37.7274 15.9845 37.7274 15.9846 37.7274 15.9848C37.7274 15.9849 37.7274 15.9851 37.7274 15.9853C37.7274 15.9854 37.7274 15.9856 37.7274 15.9857C37.7274 15.9859 37.7274 15.9861 37.7274 15.9862C37.7274 15.9864 37.7274 15.9865 37.7274 15.9867C37.7274 15.9869 37.7274 15.987 37.7274 15.9872C37.7274 15.9873 37.7274 15.9875 37.7274 15.9877C37.7274 15.9878 37.7274 15.988 37.7274 15.9882C37.7274 15.9883 37.7274 15.9885 37.7274 15.9886C37.7274 15.9888 37.7274 15.989 37.7274 15.9891C37.7274 15.9893 37.7274 15.9894 37.7274 15.9896C37.7274 15.9898 37.7274 15.9899 37.7274 15.9901C37.7274 15.9902 37.7274 15.9904 37.7274 15.9906C37.7274 15.9907 37.7274 15.9909 37.7274 15.9911C37.7274 15.9912 37.7274 15.9914 37.7274 15.9915C37.7274 15.9917 37.7274 15.9919 37.7274 15.992C37.7274 15.9922 37.7274 15.9923 37.7274 15.9925C37.7274 15.9927 37.7274 15.9928 37.7274 15.993C37.7274 15.9932 37.7274 15.9933 37.7274 15.9935C37.7274 15.9936 37.7274 15.9938 37.7274 15.994C37.7274 15.9941 37.7274 15.9943 37.7274 15.9944C37.7274 15.9946 37.7274 15.9948 37.7274 15.9949C37.7274 15.9951 37.7274 15.9953 37.7274 15.9954C37.7274 15.9956 37.7274 15.9957 37.7274 15.9959C37.7274 15.9961 37.7274 15.9962 37.7274 15.9964C37.7274 15.9965 37.7274 15.9967 37.7274 15.9969C37.7274 15.997 37.7274 15.9972 37.7274 15.9974C37.7274 15.9975 37.7274 15.9977 37.7274 15.9978C37.7274 15.998 37.7274 15.9982 37.7274 15.9983C37.7274 15.9985 37.7274 15.9987 37.7274 15.9988C37.7274 15.999 37.7274 15.9991 37.7274 15.9993C37.7274 15.9995 37.7274 15.9996 37.7274 15.9998C37.7274 16 37.7274 16.0001 37.7274 16.0003C37.7274 16.0004 37.7274 16.0006 37.7274 16.0008C37.7274 16.0009 37.7274 16.0011 37.7274 16.0013C37.7274 16.0014 37.7274 16.0016 37.7274 16.0017C37.7274 16.0019 37.7274 16.0021 37.7274 16.0022C37.7274 16.0024 37.7274 16.0026 37.7274 16.0027C37.7274 16.0029 37.7274 16.003 37.7274 16.0032C37.7274 16.0034 37.7274 16.0035 37.7274 16.0037C37.7274 16.0039 37.7274 16.004 37.7274 16.0042C37.7274 16.0043 37.7274 16.0045 37.7274 16.0047C37.7274 16.0048 37.7274 16.005 37.7274 16.0052C37.7274 16.0053 37.7274 16.0055 37.7274 16.0056C37.7274 16.0058 37.7274 16.006 37.7274 16.0061C37.7274 16.0063 37.7274 16.0065 37.7274 16.0066C37.7274 16.0068 37.7274 16.007 37.7274 16.0071C37.7274 16.0073 37.7274 16.0074 37.7274 16.0076C37.7274 16.0078 37.7274 16.0079 37.7274 16.0081C37.7274 16.0083 37.7274 16.0084 37.7274 16.0086C37.7274 16.0088 37.7274 16.0089 37.7274 16.0091C37.7274 16.0092 37.7274 16.0094 37.7274 16.0096C37.7274 16.0097 37.7274 16.0099 37.7274 16.0101C37.7274 16.0102 37.7274 16.0104 37.7274 16.0105C37.7274 16.0107 37.7274 16.0109 37.7274 16.011C37.7274 16.0112 37.7274 16.0114 37.7274 16.0115C37.7274 16.0117 37.7274 16.0119 37.7274 16.012C37.7274 16.0122 37.7274 16.0124 37.7274 16.0125C37.7274 16.0127 37.7274 16.0128 37.7274 16.013C37.7274 16.0132 37.7274 16.0133 37.7274 16.0135C37.7274 16.0137 37.7274 16.0138 37.7274 16.014C37.7274 16.0142 37.7274 16.0143 37.7274 16.0145C37.7274 16.0146 37.7274 16.0148 37.7274 16.015C37.7274 16.0151 37.7274 16.0153 37.7274 16.0155C37.7274 16.0156 37.7274 16.0158 37.7274 16.016C37.7274 16.0161 37.7274 16.0163 37.7274 16.0165C37.7274 16.0166 37.7274 16.0168 37.7274 16.0169C37.7274 16.0171 37.7274 16.0173 37.7274 16.0174C37.7274 16.0176 37.7274 16.0178 37.7274 16.0179C37.7274 16.0181 37.7274 16.0183 37.7274 16.0184C37.7274 16.0186 37.7274 16.0188 37.7274 16.0189C37.7274 16.0191 37.7274 16.0193 37.7274 16.0194C37.7274 16.0196 37.7274 16.0197 37.7274 16.0199C37.7274 16.0201 37.7274 16.0202 37.7274 16.0204C37.7274 16.0206 37.7274 16.0207 37.7274 16.0209C37.7274 16.0211 37.7274 16.0212 37.7274 16.0214C37.7274 16.0216 37.7274 16.0217 37.7274 16.0219C37.7274 16.0221 37.7274 16.0222 37.7274 16.0224C37.7274 16.0226 37.7274 16.0227 37.7274 16.0229C37.7274 16.023 37.7274 16.0232 37.7274 16.0234C37.7274 16.0235 37.7274 16.0237 37.7274 16.0239C37.7274 16.024 37.7274 16.0242 37.7274 16.0244C37.7274 16.0245 37.7274 16.0247 37.7274 16.0249C37.7274 16.025 37.7274 16.0252 37.7274 16.0254C37.7274 16.0255 37.7274 16.0257 37.7274 16.0259C37.7274 16.026 37.7274 16.0262 37.7274 16.0264C37.7274 16.0265 37.7274 16.0267 37.7274 16.0269C37.7274 16.027 37.7274 16.0272 37.7274 16.0274C37.7274 16.0275 37.7274 16.0277 37.7274 16.0279C37.7274 16.028 37.7274 16.0282 37.7274 16.0283C37.7274 16.0285 37.7274 16.0287 37.7274 16.0288C37.7274 16.029 37.7274 16.0292 37.7274 16.0293C37.7274 16.0295 37.7274 16.0297 37.7274 16.0298C37.7274 16.03 37.7274 16.0302 37.7274 16.0303C37.7274 16.0305 37.7274 16.0307 37.7274 16.0308C37.7274 16.031 37.7274 16.0312 37.7274 16.0313C37.7274 16.0315 37.7274 16.0317 37.7274 16.0318C37.7274 16.032 37.7274 16.0322 37.7274 16.0323C37.7274 16.0325 37.7274 16.0327 37.7274 16.0328C37.7274 16.033 37.7274 16.0332 37.7274 16.0333C37.7274 16.0335 37.7274 16.0337 37.7274 16.0338C37.7274 16.034 37.7274 16.0342 37.7274 16.0343C37.7274 16.0345 37.7274 16.0347 37.7274 16.0348C37.7274 16.035 37.7274 16.0352 37.7274 16.0353C37.7274 16.0355 37.7274 16.0357 37.7274 16.0358C37.7274 16.036 37.7274 16.0362 37.7274 16.0363C37.7274 16.0365 37.7274 16.0367 37.7274 16.0368C37.7274 16.037 37.7274 16.0372 37.7274 16.0373C37.7274 16.0375 37.7274 16.0377 37.7274 16.0378C37.7274 16.038 37.7274 16.0382 37.7274 16.0383C37.7274 16.0385 37.7274 16.0387 37.7274 16.0388C37.7274 16.039 37.7274 16.0392 37.7274 16.0393C37.7274 16.0395 37.7274 16.0397 37.7274 16.0398C37.7274 16.04 37.7274 16.0402 37.7274 16.0403C37.7274 16.0405 37.7274 16.0407 37.7274 16.0408C37.7274 16.041 37.7274 16.0412 37.7274 16.0413C37.7274 16.0415 37.7274 16.0417 37.7274 16.0419C37.7274 16.042 37.7274 16.0422 37.7274 16.0424C37.7274 16.0425 37.7274 16.0427 37.7274 16.0429C37.7274 16.043 37.7274 16.0432 37.7274 16.0434C37.7274 16.0435 37.7274 16.0437 37.7274 16.0439C37.7274 16.044 37.7274 16.0442 37.7274 16.0444C37.7274 16.0445 37.7274 16.0447 37.7274 16.0449C37.7274 16.045 37.7274 16.0452 37.7274 16.0454C37.7274 16.0455 37.7274 16.0457 37.7274 16.0459C37.7274 16.046 37.7274 16.0462 37.7274 16.0464C37.7274 16.0466 37.7274 16.0467 37.7274 16.0469C37.7274 16.0471 37.7274 16.0472 37.7274 16.0474C37.7274 16.0476 37.7274 16.0477 37.7274 16.0479C37.7274 16.0481 37.7274 16.0482 37.7274 16.0484C37.7274 16.0486 37.7274 16.0487 37.7274 16.0489C37.7274 16.0491 37.7274 16.0492 37.7274 16.0494C37.7274 16.0496 37.7274 16.0497 37.7274 16.0499C37.7274 16.0501 37.7274 16.0503 37.7274 16.0504C37.7274 16.0506 37.7274 16.0508 37.7274 16.0509C37.7274 16.0511 37.7274 16.0513 37.7274 16.0514C37.7274 16.0516 37.7274 16.0518 37.7274 16.0519C37.7274 16.0521 37.7274 16.0523 37.7274 16.0524C37.7274 16.0526 37.7274 16.0528 37.7274 16.053C37.7274 16.0531 37.7274 16.0533 37.7274 16.0535C37.7274 16.0536 37.7274 16.0538 37.7274 16.054C37.7274 16.0541 37.7274 16.0543 37.7274 16.0545C37.7274 16.0546 37.7274 16.0548 37.7274 16.055C37.7274 16.0552 37.7274 16.0553 37.7274 16.0555C37.7274 16.0557 37.7274 16.0558 37.7274 16.056C37.7274 16.0562 37.7274 16.0563 37.7274 16.0565C37.7274 16.0567 37.7274 16.0568 37.7274 16.057C37.7274 16.0572 37.7274 16.0574 37.7274 16.0575C37.7274 16.0577 37.7274 16.0579 37.7274 16.058C37.7274 16.0582 37.7274 16.0584 37.7274 16.0585C37.7274 16.0587 37.7274 16.0589 37.7274 16.059C37.7274 16.0592 37.7274 16.0594 37.7274 16.0596C37.7274 16.0597 37.7274 16.0599 37.7274 16.0601C37.7274 16.0602 37.7274 16.0604 37.7274 16.0606C37.7274 16.0607 37.7274 16.0609 37.7274 16.0611C37.7274 16.0613 37.7274 16.0614 37.7274 16.0616C37.7274 16.0618 37.7274 16.0619 37.7274 16.0621C37.7274 16.0623 37.7274 16.0624 37.7274 16.0626C37.7274 16.0628 37.7274 16.063 37.7274 16.0631C37.7274 16.0633 37.7274 16.0635 37.7274 16.0636C37.7274 16.0638 37.7274 16.064 37.7274 16.0641C37.7274 16.0643 37.7274 16.0645 37.7274 16.0647C37.7274 16.0648 37.7274 16.065 37.7274 16.0652C37.7274 16.0653 37.7274 16.0655 37.7274 16.0657C37.7274 16.0658 37.7274 16.066 37.7274 16.0662C37.7274 16.0664 37.7274 16.0665 37.7274 16.0667C37.7274 16.0669 37.7274 16.067 37.7274 16.0672C37.7274 16.0674 37.7274 16.0676 37.7274 16.0677C37.7274 16.0679 37.7274 16.0681 37.7274 16.0682C37.7274 16.0684 37.7274 16.0686 37.7274 16.0687C37.7274 16.0689 37.7274 16.0691 37.7274 16.0693C37.7274 16.0694 37.7274 16.0696 37.7274 16.0698C37.7274 16.0699 37.7274 16.0701 37.7274 16.0703C37.7274 16.0705 37.7274 16.0706 37.7274 16.0708C37.7274 16.071 37.7274 16.0711 37.7274 16.0713C37.7274 16.0715 37.7274 16.0717 37.7274 16.0718C37.7274 16.072 37.7274 16.0722 37.7274 16.0723C37.7274 16.0725 37.7274 16.0727 37.7274 16.0729C37.7274 16.073 37.7274 16.0732 37.7274 16.0734C37.7274 16.0735 37.7274 16.0737 37.7274 16.0739C37.7274 16.0741 37.7274 16.0742 37.7274 16.0744C37.7274 16.0746 37.7274 16.0747 37.7274 16.0749C37.7274 16.0751 37.7274 16.0753 37.7274 16.0754C37.7274 16.0756 37.7274 16.0758 37.7274 16.0759C37.7274 16.0761 37.7274 16.0763 37.7274 16.0765C37.7274 16.0766 37.7274 16.0768 37.7274 16.077C37.7274 16.0771 37.7274 16.0773 37.7274 16.0775C37.7274 16.0777 37.7274 16.0778 37.7274 16.078C37.7274 16.0782 37.7274 16.0783 37.7274 16.0785C37.7274 16.0787 37.7274 16.0789 37.7274 16.079C37.7274 16.0792 37.7274 16.0794 37.7274 16.0795C37.7274 16.0797 37.7274 16.0799 37.7274 16.0801C37.7274 16.0802 37.7274 16.0804 37.7274 16.0806C37.7274 16.0808 37.7274 16.0809 37.7274 16.0811C37.7274 16.0813 37.7274 16.0814 37.7274 16.0816C37.7274 16.0818 37.7274 16.082 37.7274 16.0821C37.7274 16.0823 37.7274 16.0825 37.7274 16.0826C37.7274 16.0828 37.7274 16.083 37.7274 16.0832C37.7274 16.0833 37.7274 16.0835 37.7274 16.0837C37.7274 16.0839 37.7274 16.084 37.7274 16.0842C37.7274 16.0844 37.7274 16.0845 37.7274 16.0847C37.7274 16.0849 37.7274 16.0851 37.7274 16.0852C37.7274 16.0854 37.7274 16.0856 37.7274 16.0858C37.7274 16.0859 37.7274 16.0861 37.7274 16.0863C37.7274 16.0864 37.7274 16.0866 37.7274 16.0868C37.7274 16.087 37.7274 16.0871 37.7274 16.0873C37.7274 16.0875 37.7274 16.0877 37.7274 16.0878C37.7274 16.088 37.7274 16.0882 37.7274 16.0883C37.7274 16.0885 37.7274 16.0887 37.7274 16.0889C37.7274 16.089 37.7274 16.0892 37.7274 16.0894C37.7274 16.0896 37.7274 16.0897 37.7274 16.0899C37.7274 16.0901 37.7274 16.0903 37.7274 16.0904C37.7274 16.0906 37.7274 16.0908 37.7274 16.0909C37.7274 16.0911 37.7274 16.0913 37.7274 16.0915C37.7274 16.0916 37.7274 16.0918 37.7274 16.092C37.7274 16.0922 37.7274 16.0923 37.7274 16.0925C37.7274 16.0927 37.7274 16.0929 37.7274 16.093C37.7274 16.0932 37.7274 16.0934 37.7274 16.0936C37.7274 16.0937 37.7274 16.0939 37.7274 16.0941C37.7274 16.0942 37.7274 16.0944 37.7274 16.0946C37.7274 16.0948 37.7274 16.0949 37.7274 16.0951C37.7274 16.0953 37.7274 16.0955 37.7274 16.0956C37.7274 16.0958 37.7274 16.096 37.7274 16.0962C37.7274 16.0963 37.7274 16.0965 37.7274 16.0967C37.7274 16.0969 37.7274 16.097 37.7274 16.0972C37.7274 16.0974 37.7274 16.0976 37.7274 16.0977C37.7274 16.0979 37.7274 16.0981 37.7274 16.0982C37.7274 16.0984 37.7274 16.0986 37.7274 16.0988C37.7274 16.0989 37.7274 16.0991 37.7274 16.0993C37.7274 16.0995 37.7274 16.0996 37.7274 16.0998C37.7274 16.1 37.7274 16.1002 37.7274 16.1003C37.7274 16.1005 37.7274 16.1007 37.7274 16.1009C37.7274 16.101 37.7274 16.1012 37.7274 16.1014C37.7274 16.1016 37.7274 16.1017 37.7274 16.1019C37.7274 16.1021 37.7274 16.1023 37.7274 16.1024C37.7274 16.1026 37.7274 16.1028 37.7274 16.103C37.7274 16.1031 37.7274 16.1033 37.7274 16.1035C37.7274 16.1037 37.7274 16.1038 37.7274 16.104C37.7274 16.1042 37.7274 16.1044 37.7274 16.1045C37.7274 16.1047 37.7274 16.1049 37.7274 16.1051C37.7274 16.1052 37.7274 16.1054 37.7274 16.1056C37.7274 16.1058 37.7274 16.1059 37.7274 16.1061C37.7274 16.1063 37.7274 16.1065 37.7274 16.1066C37.7274 16.1068 37.7274 16.107 37.7274 16.1072C37.7274 16.1073 37.7274 16.1075 37.7274 16.1077C37.7274 16.1079 37.7274 16.108 37.7274 16.1082C37.7274 16.1084 37.7274 16.1086 37.7274 16.1087C37.7274 16.1089 37.7274 16.1091 37.7274 16.1093C37.7274 16.1094 37.7274 16.1096 37.7274 16.1098C37.7274 16.11 37.7274 16.1101 37.7274 16.1103C37.7274 16.1105 37.7274 16.1107 37.7274 16.1108C37.7274 16.111 37.7274 16.1112 37.7274 16.1114C37.7274 16.1116 37.7274 16.1117 37.7274 16.1119C37.7274 16.1121 37.7274 16.1123 37.7274 16.1124C37.7274 16.1126 37.7274 16.1128 37.7274 16.113C37.7274 16.1131 37.7274 16.1133 37.7274 16.1135C37.7274 16.1137 37.7274 16.1138 37.7274 16.114C37.7274 16.1142 37.7274 16.1144 37.7274 16.1145C37.7274 16.1147 37.7274 16.1149 37.7274 16.1151C37.7274 16.1152 37.7274 16.1154 37.7274 16.1156C37.7274 16.1158 37.7274 16.116 37.7274 16.1161C37.7274 16.1163 37.7274 16.1165 37.7274 16.1167C37.7274 16.1168 37.7274 16.117 37.7274 16.1172C37.7274 16.1174 37.7274 16.1175 37.7274 16.1177C37.7274 16.1179 37.7274 16.1181 37.7274 16.1182C37.7274 16.1184 37.7274 16.1186 37.7274 16.1188C37.7274 16.119 37.7274 16.1191 37.7274 16.1193C37.7274 16.1195 37.7274 16.1197 37.7274 16.1198C37.7274 16.12 37.7274 16.1202 37.7274 16.1204C37.7274 16.1205 37.7274 16.1207 37.7274 16.1209C37.7274 16.1211 37.7274 16.1213 37.7274 16.1214C37.7274 16.1216 37.7274 16.1218 37.7274 16.122C37.7274 16.1221 37.7274 16.1223 37.7274 16.1225C37.7274 16.1227 37.7274 16.1228 37.7274 16.123C37.7274 16.1232 37.7274 16.1234 37.7274 16.1236C37.7274 16.1237 37.7274 16.1239 37.7274 16.1241C37.7274 16.1243 37.7274 16.1244 37.7274 16.1246C37.7274 16.1248 37.7274 16.125 37.7274 16.1251C37.7274 16.1253 37.7274 16.1255 37.7274 16.1257C37.7274 16.1259 37.7274 16.126 37.7274 16.1262C37.7274 16.1264 37.7274 16.1266 37.7274 16.1267C37.7274 16.1269 37.7274 16.1271 37.7274 16.1273C37.7274 16.1275 37.7274 16.1276 37.7274 16.1278C37.7274 16.128 37.7274 16.1282 37.7274 16.1283C37.7274 16.1285 37.7274 16.1287 37.7274 16.1289C37.7274 16.1291 37.7274 16.1292 37.7274 16.1294C37.7274 16.1296 37.7274 16.1298 37.7274 16.1299C37.7274 16.1301 37.7274 16.1303 37.7274 16.1305C37.7274 16.1307 37.7274 16.1308 37.7274 16.131C37.7274 16.1312 37.7274 16.1314 37.7274 16.1315C37.7274 16.1317 37.7274 16.1319 37.7274 16.1321C37.7274 16.1323 37.7274 16.1324 37.7274 16.1326C37.7274 16.1328 37.7274 16.133 37.7274 16.1332C37.7274 16.1333 37.7274 16.1335 37.7274 16.1337C37.7274 16.1339 37.7274 16.134 37.7274 16.1342C37.7274 16.1344 37.7274 16.1346 37.7274 16.1348C37.7274 16.1349 37.7274 16.1351 37.7274 16.1353C37.7274 16.1355 37.7274 16.1356 37.7274 16.1358C37.7274 16.136 37.7274 16.1362 37.7274 16.1364C37.7274 16.1365 37.7274 16.1367 37.7274 16.1369C37.7274 16.1371 37.7274 16.1373 37.7274 16.1374C37.7274 16.1376 37.7274 16.1378 37.7274 16.138C37.7274 16.1381 37.7274 16.1383 37.7274 16.1385C37.7274 16.1387 37.7274 16.1389 37.7274 16.139C37.7274 16.1392 37.7274 16.1394 37.7274 16.1396C37.7274 16.1398 37.7274 16.1399 37.7274 16.1401C37.7274 16.1403 37.7274 16.1405 37.7274 16.1407C37.7274 16.1408 37.7274 16.141 37.7274 16.1412C37.7274 16.1414 37.7274 16.1416 37.7274 16.1417C37.7274 16.1419 37.7274 16.1421 37.7274 16.1423C37.7274 16.1424 37.7274 16.1426 37.7274 16.1428C37.7274 16.143 37.7274 16.1432 37.7274 16.1433C37.7274 16.1435 37.7274 16.1437 37.7274 16.1439C37.7274 16.1441 37.7274 16.1442 37.7274 16.1444C37.7274 16.1446 37.7274 16.1448 37.7274 16.145C37.7274 16.1451 37.7274 16.1453 37.7274 16.1455C37.7274 16.1457 37.7274 16.1459 37.7274 16.146C37.7274 16.1462 37.7274 16.1464 37.7274 16.1466C37.7274 16.1468 37.7274 16.1469 37.7274 16.1471C37.7274 16.1473 37.7274 16.1475 37.7274 16.1477C37.7274 16.1478 37.7274 16.148 37.7274 16.1482C37.7274 16.1484 37.7274 16.1486 37.7274 16.1487C37.7274 16.1489 37.7274 16.1491 37.7274 16.1493C37.7274 16.1495 37.7274 16.1496 37.7274 16.1498C37.7274 16.15 37.7274 16.1502 37.7274 16.1504C37.7274 16.1505 37.7274 16.1507 37.7274 16.1509C37.7274 16.1511 37.7274 16.1513 37.7274 16.1514C37.7274 16.1516 37.7274 16.1518 37.7274 16.152C37.7274 16.1522 37.7274 16.1523 37.7274 16.1525C37.7274 16.1527 37.7274 16.1529 37.7274 16.1531C37.7274 16.1532 37.7274 16.1534 37.7274 16.1536C37.7274 16.1538 37.7274 16.154 37.7274 16.1541C37.7274 16.1543 37.7274 16.1545 37.7274 16.1547C37.7274 16.1549 37.7274 16.1551 37.7274 16.1552C37.7274 16.1554 37.7274 16.1556 37.7274 16.1558C37.7274 16.156 37.7274 16.1561 37.7274 16.1563C37.7274 16.1565 37.7274 16.1567 37.7274 16.1569C37.7274 16.157 37.7274 16.1572 37.7274 16.1574C37.7274 16.1576 37.7274 16.1578 37.7274 16.1579C37.7274 16.1581 37.7274 16.1583 37.7274 16.1585C37.7274 16.1587 37.7274 16.1589 37.7274 16.159C37.7274 16.1592 37.7274 16.1594 37.7274 16.1596C37.7274 16.1598 37.7274 16.1599 37.7274 16.1601C37.7274 16.1603 37.7274 16.1605 37.7274 16.1607C37.7274 16.1608 37.7274 16.161 37.7274 16.1612C37.7274 16.1614 37.7274 16.1616 37.7274 16.1618C37.7274 16.1619 37.7274 16.1621 37.7274 16.1623C37.7274 16.1625 37.7274 16.1627 37.7274 16.1628C37.7274 16.163 37.7274 16.1632 37.7274 16.1634C37.7274 16.1636 37.7274 16.1638 37.7274 16.1639C37.7274 16.1641 37.7274 16.1643 37.7274 16.1645C37.7274 16.1647 37.7274 16.1648 37.7274 16.165C37.7274 16.1652 37.7274 16.1654 37.7274 16.1656C37.7274 16.1658 37.7274 16.1659 37.7274 16.1661C37.7274 16.1663 37.7274 16.1665 37.7274 16.1667C37.7274 16.1668 37.7274 16.167 37.7274 16.1672C37.7274 16.1674 37.7274 16.1676 37.7274 16.1678C37.7274 16.1679 37.7274 16.1681 37.7274 16.1683C37.7274 16.1685 37.7274 16.1687 37.7274 16.1688C37.7274 16.169 37.7274 16.1692 37.7274 16.1694C37.7274 16.1696 37.7274 16.1698 37.7274 16.1699C37.7274 16.1701 37.7274 16.1703 37.7274 16.1705C37.7274 16.1707 37.7274 16.1709 37.7274 16.171C37.7274 16.1712 37.7274 16.1714 37.7274 16.1716C37.7274 16.1718 37.7274 16.172 37.7274 16.1721C37.7274 16.1723 37.7274 16.1725 37.7274 16.1727C37.7274 16.1729 37.7274 16.173 37.7274 16.1732C37.7274 16.1734 37.7274 16.1736 37.7274 16.1738C37.7274 16.174 37.7274 16.1741 37.7274 16.1743C37.7274 16.1745 37.7274 16.1747 37.7274 16.1749C37.7274 16.1751 37.7274 16.1752 37.7274 16.1754C37.7274 16.1756 37.7274 16.1758 37.7274 16.176C37.7274 16.1762 37.7274 16.1763 37.7274 16.1765C37.7274 16.1767 37.7274 16.1769 37.7274 16.1771C37.7274 16.1773 37.7274 16.1774 37.7274 16.1776C37.7274 16.1778 37.7274 16.178 37.7274 16.1782C37.7274 16.1784 37.7274 16.1785 37.7274 16.1787C37.7274 16.1789 37.7274 16.1791 37.7274 16.1793C37.7274 16.1795 37.7274 16.1796 37.7274 16.1798C37.7274 16.18 37.7274 16.1802 37.7274 16.1804C37.7274 16.1806 37.7274 16.1807 37.7274 16.1809C37.7274 16.1811 37.7274 16.1813 37.7274 16.1815C37.7274 16.1817 37.7274 16.1818 37.7274 16.182C37.7274 16.1822 37.7274 16.1824 37.7274 16.1826C37.7274 16.1828 37.7274 16.1829 37.7274 16.1831C37.7274 16.1833 37.7274 16.1835 37.7274 16.1837C37.7274 16.1839 37.7274 16.1841 37.7274 16.1842C37.7274 16.1844 37.7274 16.1846 37.7274 16.1848C37.7274 16.185 37.7274 16.1852 37.7274 16.1853C37.7274 16.1855 37.7274 16.1857 37.7274 16.1859C37.7274 16.1861 37.7274 16.1863 37.7274 16.1864C37.7274 16.1866 37.7274 16.1868 37.7274 16.187C37.7274 16.1872 37.7274 16.1874 37.7274 16.1876C37.7274 16.1877 37.7274 16.1879 37.7274 16.1881C37.7274 16.1883 37.7274 16.1885 37.7274 16.1887C37.7274 16.1888 37.7274 16.189 37.7274 16.1892C37.7274 16.1894 37.7274 16.1896 37.7274 16.1898C37.7274 16.1899 37.7274 16.1901 37.7274 16.1903C37.7274 16.1905 37.7274 16.1907 37.7274 16.1909C37.7274 16.1911 37.7274 16.1912 37.7274 16.1914C37.7274 16.1916 37.7274 16.1918 37.7274 16.192C37.7274 16.1922 37.7274 16.1924 37.7274 16.1925C37.7274 16.1927 37.7274 16.1929 37.7274 16.1931C37.7274 16.1933 37.7274 16.1935 37.7274 16.1936C37.7274 16.1938 37.7274 16.194 37.7274 16.1942C37.7274 16.1944 37.7274 16.1946 37.7274 16.1948C37.7274 16.1949 37.7274 16.1951 37.7274 16.1953C37.7274 16.1955 37.7274 16.1957 37.7274 16.1959C37.7274 16.1961 37.7274 16.1962 37.7274 16.1964C37.7274 16.1966 37.7274 16.1968 37.7274 16.197C37.7274 16.1972 37.7274 16.1974 37.7274 16.1975C37.7274 16.1977 37.7274 16.1979 37.7274 16.1981C37.7274 16.1983 37.7274 16.1985 37.7274 16.1987C37.7274 16.1988 37.7274 16.199 37.7274 16.1992C37.7274 16.1994 37.7274 16.1996 37.7274 16.1998C37.7274 16.2 37.7274 16.2001 37.7274 16.2003C37.7274 16.2005 37.7274 16.2007 37.7274 16.2009C37.7274 16.2011 37.7274 16.2013 37.7274 16.2014C37.7274 16.2016 37.7274 16.2018 37.7274 16.202C37.7274 16.2022 37.7274 16.2024 37.7274 16.2026C37.7274 16.2027 37.7274 16.2029 37.7274 16.2031C37.7274 16.2033 37.7274 16.2035 37.7274 16.2037C37.7274 16.2039 37.7274 16.204 37.7274 16.2042C37.7274 16.2044 37.7274 16.2046 37.7274 16.2048C37.7274 16.205 37.7274 16.2052 37.7274 16.2053C37.7274 16.2055 37.7274 16.2057 37.7274 16.2059C37.7274 16.2061 37.7274 16.2063 37.7274 16.2065C37.7274 16.2066 37.7274 16.2068 37.7274 16.207C37.7274 16.2072 37.7274 16.2074 37.7274 16.2076C37.7274 16.2078 37.7274 16.208 37.7274 16.2081C37.7274 16.2083 37.7274 16.2085 37.7274 16.2087C37.7274 16.2089 37.7274 16.2091 37.7274 16.2093C37.7274 16.2094 37.7274 16.2096 37.7274 16.2098C37.7274 16.21 37.7274 16.2102 37.7274 16.2104C37.7274 16.2106 37.7274 16.2108 37.7274 16.2109C37.7274 16.2111 37.7274 16.2113 37.7274 16.2115C37.7274 16.2117 37.7274 16.2119 37.7274 16.2121C37.7274 16.2123 37.7274 16.2124 37.7274 16.2126C37.7274 16.2128 37.7274 16.213 37.7274 16.2132C37.7274 16.2134 37.7274 16.2136 37.7274 16.2138C37.7274 16.2139 37.7274 16.2141 37.7274 16.2143C37.7274 16.2145 37.7274 16.2147 37.7274 16.2149C37.7274 16.2151 37.7274 16.2153 37.7274 16.2154C37.7274 16.2156 37.7274 16.2158 37.7274 16.216H39.7274C39.7274 16.2158 39.7274 16.2156 39.7274 16.2154C39.7274 16.2153 39.7274 16.2151 39.7274 16.2149C39.7274 16.2147 39.7274 16.2145 39.7274 16.2143C39.7274 16.2141 39.7274 16.2139 39.7274 16.2138C39.7274 16.2136 39.7274 16.2134 39.7274 16.2132C39.7274 16.213 39.7274 16.2128 39.7274 16.2126C39.7274 16.2124 39.7274 16.2123 39.7274 16.2121C39.7274 16.2119 39.7274 16.2117 39.7274 16.2115C39.7274 16.2113 39.7274 16.2111 39.7274 16.2109C39.7274 16.2108 39.7274 16.2106 39.7274 16.2104C39.7274 16.2102 39.7274 16.21 39.7274 16.2098C39.7274 16.2096 39.7274 16.2094 39.7274 16.2093C39.7274 16.2091 39.7274 16.2089 39.7274 16.2087C39.7274 16.2085 39.7274 16.2083 39.7274 16.2081C39.7274 16.208 39.7274 16.2078 39.7274 16.2076C39.7274 16.2074 39.7274 16.2072 39.7274 16.207C39.7274 16.2068 39.7274 16.2066 39.7274 16.2065C39.7274 16.2063 39.7274 16.2061 39.7274 16.2059C39.7274 16.2057 39.7274 16.2055 39.7274 16.2053C39.7274 16.2052 39.7274 16.205 39.7274 16.2048C39.7274 16.2046 39.7274 16.2044 39.7274 16.2042C39.7274 16.204 39.7274 16.2039 39.7274 16.2037C39.7274 16.2035 39.7274 16.2033 39.7274 16.2031C39.7274 16.2029 39.7274 16.2027 39.7274 16.2026C39.7274 16.2024 39.7274 16.2022 39.7274 16.202C39.7274 16.2018 39.7274 16.2016 39.7274 16.2014C39.7274 16.2013 39.7274 16.2011 39.7274 16.2009C39.7274 16.2007 39.7274 16.2005 39.7274 16.2003C39.7274 16.2001 39.7274 16.2 39.7274 16.1998C39.7274 16.1996 39.7274 16.1994 39.7274 16.1992C39.7274 16.199 39.7274 16.1988 39.7274 16.1987C39.7274 16.1985 39.7274 16.1983 39.7274 16.1981C39.7274 16.1979 39.7274 16.1977 39.7274 16.1975C39.7274 16.1974 39.7274 16.1972 39.7274 16.197C39.7274 16.1968 39.7274 16.1966 39.7274 16.1964C39.7274 16.1962 39.7274 16.1961 39.7274 16.1959C39.7274 16.1957 39.7274 16.1955 39.7274 16.1953C39.7274 16.1951 39.7274 16.1949 39.7274 16.1948C39.7274 16.1946 39.7274 16.1944 39.7274 16.1942C39.7274 16.194 39.7274 16.1938 39.7274 16.1936C39.7274 16.1935 39.7274 16.1933 39.7274 16.1931C39.7274 16.1929 39.7274 16.1927 39.7274 16.1925C39.7274 16.1924 39.7274 16.1922 39.7274 16.192C39.7274 16.1918 39.7274 16.1916 39.7274 16.1914C39.7274 16.1912 39.7274 16.1911 39.7274 16.1909C39.7274 16.1907 39.7274 16.1905 39.7274 16.1903C39.7274 16.1901 39.7274 16.1899 39.7274 16.1898C39.7274 16.1896 39.7274 16.1894 39.7274 16.1892C39.7274 16.189 39.7274 16.1888 39.7274 16.1887C39.7274 16.1885 39.7274 16.1883 39.7274 16.1881C39.7274 16.1879 39.7274 16.1877 39.7274 16.1876C39.7274 16.1874 39.7274 16.1872 39.7274 16.187C39.7274 16.1868 39.7274 16.1866 39.7274 16.1864C39.7274 16.1863 39.7274 16.1861 39.7274 16.1859C39.7274 16.1857 39.7274 16.1855 39.7274 16.1853C39.7274 16.1852 39.7274 16.185 39.7274 16.1848C39.7274 16.1846 39.7274 16.1844 39.7274 16.1842C39.7274 16.1841 39.7274 16.1839 39.7274 16.1837C39.7274 16.1835 39.7274 16.1833 39.7274 16.1831C39.7274 16.1829 39.7274 16.1828 39.7274 16.1826C39.7274 16.1824 39.7274 16.1822 39.7274 16.182C39.7274 16.1818 39.7274 16.1817 39.7274 16.1815C39.7274 16.1813 39.7274 16.1811 39.7274 16.1809C39.7274 16.1807 39.7274 16.1806 39.7274 16.1804C39.7274 16.1802 39.7274 16.18 39.7274 16.1798C39.7274 16.1796 39.7274 16.1795 39.7274 16.1793C39.7274 16.1791 39.7274 16.1789 39.7274 16.1787C39.7274 16.1785 39.7274 16.1784 39.7274 16.1782C39.7274 16.178 39.7274 16.1778 39.7274 16.1776C39.7274 16.1774 39.7274 16.1773 39.7274 16.1771C39.7274 16.1769 39.7274 16.1767 39.7274 16.1765C39.7274 16.1763 39.7274 16.1762 39.7274 16.176C39.7274 16.1758 39.7274 16.1756 39.7274 16.1754C39.7274 16.1752 39.7274 16.1751 39.7274 16.1749C39.7274 16.1747 39.7274 16.1745 39.7274 16.1743C39.7274 16.1741 39.7274 16.174 39.7274 16.1738C39.7274 16.1736 39.7274 16.1734 39.7274 16.1732C39.7274 16.173 39.7274 16.1729 39.7274 16.1727C39.7274 16.1725 39.7274 16.1723 39.7274 16.1721C39.7274 16.172 39.7274 16.1718 39.7274 16.1716C39.7274 16.1714 39.7274 16.1712 39.7274 16.171C39.7274 16.1709 39.7274 16.1707 39.7274 16.1705C39.7274 16.1703 39.7274 16.1701 39.7274 16.1699C39.7274 16.1698 39.7274 16.1696 39.7274 16.1694C39.7274 16.1692 39.7274 16.169 39.7274 16.1688C39.7274 16.1687 39.7274 16.1685 39.7274 16.1683C39.7274 16.1681 39.7274 16.1679 39.7274 16.1678C39.7274 16.1676 39.7274 16.1674 39.7274 16.1672C39.7274 16.167 39.7274 16.1668 39.7274 16.1667C39.7274 16.1665 39.7274 16.1663 39.7274 16.1661C39.7274 16.1659 39.7274 16.1658 39.7274 16.1656C39.7274 16.1654 39.7274 16.1652 39.7274 16.165C39.7274 16.1648 39.7274 16.1647 39.7274 16.1645C39.7274 16.1643 39.7274 16.1641 39.7274 16.1639C39.7274 16.1638 39.7274 16.1636 39.7274 16.1634C39.7274 16.1632 39.7274 16.163 39.7274 16.1628C39.7274 16.1627 39.7274 16.1625 39.7274 16.1623C39.7274 16.1621 39.7274 16.1619 39.7274 16.1618C39.7274 16.1616 39.7274 16.1614 39.7274 16.1612C39.7274 16.161 39.7274 16.1608 39.7274 16.1607C39.7274 16.1605 39.7274 16.1603 39.7274 16.1601C39.7274 16.1599 39.7274 16.1598 39.7274 16.1596C39.7274 16.1594 39.7274 16.1592 39.7274 16.159C39.7274 16.1589 39.7274 16.1587 39.7274 16.1585C39.7274 16.1583 39.7274 16.1581 39.7274 16.1579C39.7274 16.1578 39.7274 16.1576 39.7274 16.1574C39.7274 16.1572 39.7274 16.157 39.7274 16.1569C39.7274 16.1567 39.7274 16.1565 39.7274 16.1563C39.7274 16.1561 39.7274 16.156 39.7274 16.1558C39.7274 16.1556 39.7274 16.1554 39.7274 16.1552C39.7274 16.1551 39.7274 16.1549 39.7274 16.1547C39.7274 16.1545 39.7274 16.1543 39.7274 16.1541C39.7274 16.154 39.7274 16.1538 39.7274 16.1536C39.7274 16.1534 39.7274 16.1532 39.7274 16.1531C39.7274 16.1529 39.7274 16.1527 39.7274 16.1525C39.7274 16.1523 39.7274 16.1522 39.7274 16.152C39.7274 16.1518 39.7274 16.1516 39.7274 16.1514C39.7274 16.1513 39.7274 16.1511 39.7274 16.1509C39.7274 16.1507 39.7274 16.1505 39.7274 16.1504C39.7274 16.1502 39.7274 16.15 39.7274 16.1498C39.7274 16.1496 39.7274 16.1495 39.7274 16.1493C39.7274 16.1491 39.7274 16.1489 39.7274 16.1487C39.7274 16.1486 39.7274 16.1484 39.7274 16.1482C39.7274 16.148 39.7274 16.1478 39.7274 16.1477C39.7274 16.1475 39.7274 16.1473 39.7274 16.1471C39.7274 16.1469 39.7274 16.1468 39.7274 16.1466C39.7274 16.1464 39.7274 16.1462 39.7274 16.146C39.7274 16.1459 39.7274 16.1457 39.7274 16.1455C39.7274 16.1453 39.7274 16.1451 39.7274 16.145C39.7274 16.1448 39.7274 16.1446 39.7274 16.1444C39.7274 16.1442 39.7274 16.1441 39.7274 16.1439C39.7274 16.1437 39.7274 16.1435 39.7274 16.1433C39.7274 16.1432 39.7274 16.143 39.7274 16.1428C39.7274 16.1426 39.7274 16.1424 39.7274 16.1423C39.7274 16.1421 39.7274 16.1419 39.7274 16.1417C39.7274 16.1416 39.7274 16.1414 39.7274 16.1412C39.7274 16.141 39.7274 16.1408 39.7274 16.1407C39.7274 16.1405 39.7274 16.1403 39.7274 16.1401C39.7274 16.1399 39.7274 16.1398 39.7274 16.1396C39.7274 16.1394 39.7274 16.1392 39.7274 16.139C39.7274 16.1389 39.7274 16.1387 39.7274 16.1385C39.7274 16.1383 39.7274 16.1381 39.7274 16.138C39.7274 16.1378 39.7274 16.1376 39.7274 16.1374C39.7274 16.1373 39.7274 16.1371 39.7274 16.1369C39.7274 16.1367 39.7274 16.1365 39.7274 16.1364C39.7274 16.1362 39.7274 16.136 39.7274 16.1358C39.7274 16.1356 39.7274 16.1355 39.7274 16.1353C39.7274 16.1351 39.7274 16.1349 39.7274 16.1348C39.7274 16.1346 39.7274 16.1344 39.7274 16.1342C39.7274 16.134 39.7274 16.1339 39.7274 16.1337C39.7274 16.1335 39.7274 16.1333 39.7274 16.1332C39.7274 16.133 39.7274 16.1328 39.7274 16.1326C39.7274 16.1324 39.7274 16.1323 39.7274 16.1321C39.7274 16.1319 39.7274 16.1317 39.7274 16.1315C39.7274 16.1314 39.7274 16.1312 39.7274 16.131C39.7274 16.1308 39.7274 16.1307 39.7274 16.1305C39.7274 16.1303 39.7274 16.1301 39.7274 16.1299C39.7274 16.1298 39.7274 16.1296 39.7274 16.1294C39.7274 16.1292 39.7274 16.1291 39.7274 16.1289C39.7274 16.1287 39.7274 16.1285 39.7274 16.1283C39.7274 16.1282 39.7274 16.128 39.7274 16.1278C39.7274 16.1276 39.7274 16.1275 39.7274 16.1273C39.7274 16.1271 39.7274 16.1269 39.7274 16.1267C39.7274 16.1266 39.7274 16.1264 39.7274 16.1262C39.7274 16.126 39.7274 16.1259 39.7274 16.1257C39.7274 16.1255 39.7274 16.1253 39.7274 16.1251C39.7274 16.125 39.7274 16.1248 39.7274 16.1246C39.7274 16.1244 39.7274 16.1243 39.7274 16.1241C39.7274 16.1239 39.7274 16.1237 39.7274 16.1236C39.7274 16.1234 39.7274 16.1232 39.7274 16.123C39.7274 16.1228 39.7274 16.1227 39.7274 16.1225C39.7274 16.1223 39.7274 16.1221 39.7274 16.122C39.7274 16.1218 39.7274 16.1216 39.7274 16.1214C39.7274 16.1213 39.7274 16.1211 39.7274 16.1209C39.7274 16.1207 39.7274 16.1205 39.7274 16.1204C39.7274 16.1202 39.7274 16.12 39.7274 16.1198C39.7274 16.1197 39.7274 16.1195 39.7274 16.1193C39.7274 16.1191 39.7274 16.119 39.7274 16.1188C39.7274 16.1186 39.7274 16.1184 39.7274 16.1182C39.7274 16.1181 39.7274 16.1179 39.7274 16.1177C39.7274 16.1175 39.7274 16.1174 39.7274 16.1172C39.7274 16.117 39.7274 16.1168 39.7274 16.1167C39.7274 16.1165 39.7274 16.1163 39.7274 16.1161C39.7274 16.116 39.7274 16.1158 39.7274 16.1156C39.7274 16.1154 39.7274 16.1152 39.7274 16.1151C39.7274 16.1149 39.7274 16.1147 39.7274 16.1145C39.7274 16.1144 39.7274 16.1142 39.7274 16.114C39.7274 16.1138 39.7274 16.1137 39.7274 16.1135C39.7274 16.1133 39.7274 16.1131 39.7274 16.113C39.7274 16.1128 39.7274 16.1126 39.7274 16.1124C39.7274 16.1123 39.7274 16.1121 39.7274 16.1119C39.7274 16.1117 39.7274 16.1116 39.7274 16.1114C39.7274 16.1112 39.7274 16.111 39.7274 16.1108C39.7274 16.1107 39.7274 16.1105 39.7274 16.1103C39.7274 16.1101 39.7274 16.11 39.7274 16.1098C39.7274 16.1096 39.7274 16.1094 39.7274 16.1093C39.7274 16.1091 39.7274 16.1089 39.7274 16.1087C39.7274 16.1086 39.7274 16.1084 39.7274 16.1082C39.7274 16.108 39.7274 16.1079 39.7274 16.1077C39.7274 16.1075 39.7274 16.1073 39.7274 16.1072C39.7274 16.107 39.7274 16.1068 39.7274 16.1066C39.7274 16.1065 39.7274 16.1063 39.7274 16.1061C39.7274 16.1059 39.7274 16.1058 39.7274 16.1056C39.7274 16.1054 39.7274 16.1052 39.7274 16.1051C39.7274 16.1049 39.7274 16.1047 39.7274 16.1045C39.7274 16.1044 39.7274 16.1042 39.7274 16.104C39.7274 16.1038 39.7274 16.1037 39.7274 16.1035C39.7274 16.1033 39.7274 16.1031 39.7274 16.103C39.7274 16.1028 39.7274 16.1026 39.7274 16.1024C39.7274 16.1023 39.7274 16.1021 39.7274 16.1019C39.7274 16.1017 39.7274 16.1016 39.7274 16.1014C39.7274 16.1012 39.7274 16.101 39.7274 16.1009C39.7274 16.1007 39.7274 16.1005 39.7274 16.1003C39.7274 16.1002 39.7274 16.1 39.7274 16.0998C39.7274 16.0996 39.7274 16.0995 39.7274 16.0993C39.7274 16.0991 39.7274 16.0989 39.7274 16.0988C39.7274 16.0986 39.7274 16.0984 39.7274 16.0982C39.7274 16.0981 39.7274 16.0979 39.7274 16.0977C39.7274 16.0976 39.7274 16.0974 39.7274 16.0972C39.7274 16.097 39.7274 16.0969 39.7274 16.0967C39.7274 16.0965 39.7274 16.0963 39.7274 16.0962C39.7274 16.096 39.7274 16.0958 39.7274 16.0956C39.7274 16.0955 39.7274 16.0953 39.7274 16.0951C39.7274 16.0949 39.7274 16.0948 39.7274 16.0946C39.7274 16.0944 39.7274 16.0942 39.7274 16.0941C39.7274 16.0939 39.7274 16.0937 39.7274 16.0936C39.7274 16.0934 39.7274 16.0932 39.7274 16.093C39.7274 16.0929 39.7274 16.0927 39.7274 16.0925C39.7274 16.0923 39.7274 16.0922 39.7274 16.092C39.7274 16.0918 39.7274 16.0916 39.7274 16.0915C39.7274 16.0913 39.7274 16.0911 39.7274 16.0909C39.7274 16.0908 39.7274 16.0906 39.7274 16.0904C39.7274 16.0903 39.7274 16.0901 39.7274 16.0899C39.7274 16.0897 39.7274 16.0896 39.7274 16.0894C39.7274 16.0892 39.7274 16.089 39.7274 16.0889C39.7274 16.0887 39.7274 16.0885 39.7274 16.0883C39.7274 16.0882 39.7274 16.088 39.7274 16.0878C39.7274 16.0877 39.7274 16.0875 39.7274 16.0873C39.7274 16.0871 39.7274 16.087 39.7274 16.0868C39.7274 16.0866 39.7274 16.0864 39.7274 16.0863C39.7274 16.0861 39.7274 16.0859 39.7274 16.0858C39.7274 16.0856 39.7274 16.0854 39.7274 16.0852C39.7274 16.0851 39.7274 16.0849 39.7274 16.0847C39.7274 16.0845 39.7274 16.0844 39.7274 16.0842C39.7274 16.084 39.7274 16.0839 39.7274 16.0837C39.7274 16.0835 39.7274 16.0833 39.7274 16.0832C39.7274 16.083 39.7274 16.0828 39.7274 16.0826C39.7274 16.0825 39.7274 16.0823 39.7274 16.0821C39.7274 16.082 39.7274 16.0818 39.7274 16.0816C39.7274 16.0814 39.7274 16.0813 39.7274 16.0811C39.7274 16.0809 39.7274 16.0808 39.7274 16.0806C39.7274 16.0804 39.7274 16.0802 39.7274 16.0801C39.7274 16.0799 39.7274 16.0797 39.7274 16.0795C39.7274 16.0794 39.7274 16.0792 39.7274 16.079C39.7274 16.0789 39.7274 16.0787 39.7274 16.0785C39.7274 16.0783 39.7274 16.0782 39.7274 16.078C39.7274 16.0778 39.7274 16.0777 39.7274 16.0775C39.7274 16.0773 39.7274 16.0771 39.7274 16.077C39.7274 16.0768 39.7274 16.0766 39.7274 16.0765C39.7274 16.0763 39.7274 16.0761 39.7274 16.0759C39.7274 16.0758 39.7274 16.0756 39.7274 16.0754C39.7274 16.0753 39.7274 16.0751 39.7274 16.0749C39.7274 16.0747 39.7274 16.0746 39.7274 16.0744C39.7274 16.0742 39.7274 16.0741 39.7274 16.0739C39.7274 16.0737 39.7274 16.0735 39.7274 16.0734C39.7274 16.0732 39.7274 16.073 39.7274 16.0729C39.7274 16.0727 39.7274 16.0725 39.7274 16.0723C39.7274 16.0722 39.7274 16.072 39.7274 16.0718C39.7274 16.0717 39.7274 16.0715 39.7274 16.0713C39.7274 16.0711 39.7274 16.071 39.7274 16.0708C39.7274 16.0706 39.7274 16.0705 39.7274 16.0703C39.7274 16.0701 39.7274 16.0699 39.7274 16.0698C39.7274 16.0696 39.7274 16.0694 39.7274 16.0693C39.7274 16.0691 39.7274 16.0689 39.7274 16.0687C39.7274 16.0686 39.7274 16.0684 39.7274 16.0682C39.7274 16.0681 39.7274 16.0679 39.7274 16.0677C39.7274 16.0676 39.7274 16.0674 39.7274 16.0672C39.7274 16.067 39.7274 16.0669 39.7274 16.0667C39.7274 16.0665 39.7274 16.0664 39.7274 16.0662C39.7274 16.066 39.7274 16.0658 39.7274 16.0657C39.7274 16.0655 39.7274 16.0653 39.7274 16.0652C39.7274 16.065 39.7274 16.0648 39.7274 16.0647C39.7274 16.0645 39.7274 16.0643 39.7274 16.0641C39.7274 16.064 39.7274 16.0638 39.7274 16.0636C39.7274 16.0635 39.7274 16.0633 39.7274 16.0631C39.7274 16.063 39.7274 16.0628 39.7274 16.0626C39.7274 16.0624 39.7274 16.0623 39.7274 16.0621C39.7274 16.0619 39.7274 16.0618 39.7274 16.0616C39.7274 16.0614 39.7274 16.0613 39.7274 16.0611C39.7274 16.0609 39.7274 16.0607 39.7274 16.0606C39.7274 16.0604 39.7274 16.0602 39.7274 16.0601C39.7274 16.0599 39.7274 16.0597 39.7274 16.0596C39.7274 16.0594 39.7274 16.0592 39.7274 16.059C39.7274 16.0589 39.7274 16.0587 39.7274 16.0585C39.7274 16.0584 39.7274 16.0582 39.7274 16.058C39.7274 16.0579 39.7274 16.0577 39.7274 16.0575C39.7274 16.0574 39.7274 16.0572 39.7274 16.057C39.7274 16.0568 39.7274 16.0567 39.7274 16.0565C39.7274 16.0563 39.7274 16.0562 39.7274 16.056C39.7274 16.0558 39.7274 16.0557 39.7274 16.0555C39.7274 16.0553 39.7274 16.0552 39.7274 16.055C39.7274 16.0548 39.7274 16.0546 39.7274 16.0545C39.7274 16.0543 39.7274 16.0541 39.7274 16.054C39.7274 16.0538 39.7274 16.0536 39.7274 16.0535C39.7274 16.0533 39.7274 16.0531 39.7274 16.053C39.7274 16.0528 39.7274 16.0526 39.7274 16.0524C39.7274 16.0523 39.7274 16.0521 39.7274 16.0519C39.7274 16.0518 39.7274 16.0516 39.7274 16.0514C39.7274 16.0513 39.7274 16.0511 39.7274 16.0509C39.7274 16.0508 39.7274 16.0506 39.7274 16.0504C39.7274 16.0503 39.7274 16.0501 39.7274 16.0499C39.7274 16.0497 39.7274 16.0496 39.7274 16.0494C39.7274 16.0492 39.7274 16.0491 39.7274 16.0489C39.7274 16.0487 39.7274 16.0486 39.7274 16.0484C39.7274 16.0482 39.7274 16.0481 39.7274 16.0479C39.7274 16.0477 39.7274 16.0476 39.7274 16.0474C39.7274 16.0472 39.7274 16.0471 39.7274 16.0469C39.7274 16.0467 39.7274 16.0466 39.7274 16.0464C39.7274 16.0462 39.7274 16.046 39.7274 16.0459C39.7274 16.0457 39.7274 16.0455 39.7274 16.0454C39.7274 16.0452 39.7274 16.045 39.7274 16.0449C39.7274 16.0447 39.7274 16.0445 39.7274 16.0444C39.7274 16.0442 39.7274 16.044 39.7274 16.0439C39.7274 16.0437 39.7274 16.0435 39.7274 16.0434C39.7274 16.0432 39.7274 16.043 39.7274 16.0429C39.7274 16.0427 39.7274 16.0425 39.7274 16.0424C39.7274 16.0422 39.7274 16.042 39.7274 16.0419C39.7274 16.0417 39.7274 16.0415 39.7274 16.0413C39.7274 16.0412 39.7274 16.041 39.7274 16.0408C39.7274 16.0407 39.7274 16.0405 39.7274 16.0403C39.7274 16.0402 39.7274 16.04 39.7274 16.0398C39.7274 16.0397 39.7274 16.0395 39.7274 16.0393C39.7274 16.0392 39.7274 16.039 39.7274 16.0388C39.7274 16.0387 39.7274 16.0385 39.7274 16.0383C39.7274 16.0382 39.7274 16.038 39.7274 16.0378C39.7274 16.0377 39.7274 16.0375 39.7274 16.0373C39.7274 16.0372 39.7274 16.037 39.7274 16.0368C39.7274 16.0367 39.7274 16.0365 39.7274 16.0363C39.7274 16.0362 39.7274 16.036 39.7274 16.0358C39.7274 16.0357 39.7274 16.0355 39.7274 16.0353C39.7274 16.0352 39.7274 16.035 39.7274 16.0348C39.7274 16.0347 39.7274 16.0345 39.7274 16.0343C39.7274 16.0342 39.7274 16.034 39.7274 16.0338C39.7274 16.0337 39.7274 16.0335 39.7274 16.0333C39.7274 16.0332 39.7274 16.033 39.7274 16.0328C39.7274 16.0327 39.7274 16.0325 39.7274 16.0323C39.7274 16.0322 39.7274 16.032 39.7274 16.0318C39.7274 16.0317 39.7274 16.0315 39.7274 16.0313C39.7274 16.0312 39.7274 16.031 39.7274 16.0308C39.7274 16.0307 39.7274 16.0305 39.7274 16.0303C39.7274 16.0302 39.7274 16.03 39.7274 16.0298C39.7274 16.0297 39.7274 16.0295 39.7274 16.0293C39.7274 16.0292 39.7274 16.029 39.7274 16.0288C39.7274 16.0287 39.7274 16.0285 39.7274 16.0283C39.7274 16.0282 39.7274 16.028 39.7274 16.0279C39.7274 16.0277 39.7274 16.0275 39.7274 16.0274C39.7274 16.0272 39.7274 16.027 39.7274 16.0269C39.7274 16.0267 39.7274 16.0265 39.7274 16.0264C39.7274 16.0262 39.7274 16.026 39.7274 16.0259C39.7274 16.0257 39.7274 16.0255 39.7274 16.0254C39.7274 16.0252 39.7274 16.025 39.7274 16.0249C39.7274 16.0247 39.7274 16.0245 39.7274 16.0244C39.7274 16.0242 39.7274 16.024 39.7274 16.0239C39.7274 16.0237 39.7274 16.0235 39.7274 16.0234C39.7274 16.0232 39.7274 16.023 39.7274 16.0229C39.7274 16.0227 39.7274 16.0226 39.7274 16.0224C39.7274 16.0222 39.7274 16.0221 39.7274 16.0219C39.7274 16.0217 39.7274 16.0216 39.7274 16.0214C39.7274 16.0212 39.7274 16.0211 39.7274 16.0209C39.7274 16.0207 39.7274 16.0206 39.7274 16.0204C39.7274 16.0202 39.7274 16.0201 39.7274 16.0199C39.7274 16.0197 39.7274 16.0196 39.7274 16.0194C39.7274 16.0193 39.7274 16.0191 39.7274 16.0189C39.7274 16.0188 39.7274 16.0186 39.7274 16.0184C39.7274 16.0183 39.7274 16.0181 39.7274 16.0179C39.7274 16.0178 39.7274 16.0176 39.7274 16.0174C39.7274 16.0173 39.7274 16.0171 39.7274 16.0169C39.7274 16.0168 39.7274 16.0166 39.7274 16.0165C39.7274 16.0163 39.7274 16.0161 39.7274 16.016C39.7274 16.0158 39.7274 16.0156 39.7274 16.0155C39.7274 16.0153 39.7274 16.0151 39.7274 16.015C39.7274 16.0148 39.7274 16.0146 39.7274 16.0145C39.7274 16.0143 39.7274 16.0142 39.7274 16.014C39.7274 16.0138 39.7274 16.0137 39.7274 16.0135C39.7274 16.0133 39.7274 16.0132 39.7274 16.013C39.7274 16.0128 39.7274 16.0127 39.7274 16.0125C39.7274 16.0124 39.7274 16.0122 39.7274 16.012C39.7274 16.0119 39.7274 16.0117 39.7274 16.0115C39.7274 16.0114 39.7274 16.0112 39.7274 16.011C39.7274 16.0109 39.7274 16.0107 39.7274 16.0105C39.7274 16.0104 39.7274 16.0102 39.7274 16.0101C39.7274 16.0099 39.7274 16.0097 39.7274 16.0096C39.7274 16.0094 39.7274 16.0092 39.7274 16.0091C39.7274 16.0089 39.7274 16.0088 39.7274 16.0086C39.7274 16.0084 39.7274 16.0083 39.7274 16.0081C39.7274 16.0079 39.7274 16.0078 39.7274 16.0076C39.7274 16.0074 39.7274 16.0073 39.7274 16.0071C39.7274 16.007 39.7274 16.0068 39.7274 16.0066C39.7274 16.0065 39.7274 16.0063 39.7274 16.0061C39.7274 16.006 39.7274 16.0058 39.7274 16.0056C39.7274 16.0055 39.7274 16.0053 39.7274 16.0052C39.7274 16.005 39.7274 16.0048 39.7274 16.0047C39.7274 16.0045 39.7274 16.0043 39.7274 16.0042C39.7274 16.004 39.7274 16.0039 39.7274 16.0037C39.7274 16.0035 39.7274 16.0034 39.7274 16.0032C39.7274 16.003 39.7274 16.0029 39.7274 16.0027C39.7274 16.0026 39.7274 16.0024 39.7274 16.0022C39.7274 16.0021 39.7274 16.0019 39.7274 16.0017C39.7274 16.0016 39.7274 16.0014 39.7274 16.0013C39.7274 16.0011 39.7274 16.0009 39.7274 16.0008C39.7274 16.0006 39.7274 16.0004 39.7274 16.0003C39.7274 16.0001 39.7274 16 39.7274 15.9998C39.7274 15.9996 39.7274 15.9995 39.7274 15.9993C39.7274 15.9991 39.7274 15.999 39.7274 15.9988C39.7274 15.9987 39.7274 15.9985 39.7274 15.9983C39.7274 15.9982 39.7274 15.998 39.7274 15.9978C39.7274 15.9977 39.7274 15.9975 39.7274 15.9974C39.7274 15.9972 39.7274 15.997 39.7274 15.9969C39.7274 15.9967 39.7274 15.9965 39.7274 15.9964C39.7274 15.9962 39.7274 15.9961 39.7274 15.9959C39.7274 15.9957 39.7274 15.9956 39.7274 15.9954C39.7274 15.9953 39.7274 15.9951 39.7274 15.9949C39.7274 15.9948 39.7274 15.9946 39.7274 15.9944C39.7274 15.9943 39.7274 15.9941 39.7274 15.994C39.7274 15.9938 39.7274 15.9936 39.7274 15.9935C39.7274 15.9933 39.7274 15.9932 39.7274 15.993C39.7274 15.9928 39.7274 15.9927 39.7274 15.9925C39.7274 15.9923 39.7274 15.9922 39.7274 15.992C39.7274 15.9919 39.7274 15.9917 39.7274 15.9915C39.7274 15.9914 39.7274 15.9912 39.7274 15.9911C39.7274 15.9909 39.7274 15.9907 39.7274 15.9906C39.7274 15.9904 39.7274 15.9902 39.7274 15.9901C39.7274 15.9899 39.7274 15.9898 39.7274 15.9896C39.7274 15.9894 39.7274 15.9893 39.7274 15.9891C39.7274 15.989 39.7274 15.9888 39.7274 15.9886C39.7274 15.9885 39.7274 15.9883 39.7274 15.9882C39.7274 15.988 39.7274 15.9878 39.7274 15.9877C39.7274 15.9875 39.7274 15.9873 39.7274 15.9872C39.7274 15.987 39.7274 15.9869 39.7274 15.9867C39.7274 15.9865 39.7274 15.9864 39.7274 15.9862C39.7274 15.9861 39.7274 15.9859 39.7274 15.9857C39.7274 15.9856 39.7274 15.9854 39.7274 15.9853C39.7274 15.9851 39.7274 15.9849 39.7274 15.9848C39.7274 15.9846 39.7274 15.9845 39.7274 15.9843C39.7274 15.9841 39.7274 15.984 39.7274 15.9838C39.7274 15.9837 39.7274 15.9835 39.7274 15.9833C39.7274 15.9832 39.7274 15.983 39.7274 15.9829C39.7274 15.9827 39.7274 15.9825 39.7274 15.9824C39.7274 15.9822 39.7274 15.9821 39.7274 15.9819C39.7274 15.9817 39.7274 15.9816 39.7274 15.9814C39.7274 15.9813 39.7274 15.9811 39.7274 15.9809C39.7274 15.9808 39.7274 15.9806 39.7274 15.9805C39.7274 15.9803 39.7274 15.9801 39.7274 15.98C39.7274 15.9798 39.7274 15.9797 39.7274 15.9795C39.7274 15.9793 39.7274 15.9792 39.7274 15.979C39.7274 15.9789 39.7274 15.9787 39.7274 15.9785C39.7274 15.9784 39.7274 15.9782 39.7274 15.9781C39.7274 15.9779 39.7274 15.9777 39.7274 15.9776C39.7274 15.9774 39.7274 15.9773 39.7274 15.9771C39.7274 15.9769 39.7274 15.9768 39.7274 15.9766C39.7274 15.9765 39.7274 15.9763 39.7274 15.9761C39.7274 15.976 39.7274 15.9758 39.7274 15.9757C39.7274 15.9755 39.7274 15.9753 39.7274 15.9752C39.7274 15.975 39.7274 15.9749 39.7274 15.9747C39.7274 15.9746 39.7274 15.9744 39.7274 15.9742C39.7274 15.9741 39.7274 15.9739 39.7274 15.9738C39.7274 15.9736 39.7274 15.9734 39.7274 15.9733C39.7274 15.9731 39.7274 15.973 39.7274 15.9728C39.7274 15.9726 39.7274 15.9725 39.7274 15.9723C39.7274 15.9722 39.7274 15.972 39.7274 15.9718C39.7274 15.9717 39.7274 15.9715 39.7274 15.9714C39.7274 15.9712 39.7274 15.9711 39.7274 15.9709C39.7274 15.9707 39.7274 15.9706 39.7274 15.9704C39.7274 15.9703 39.7274 15.9701 39.7274 15.9699C39.7274 15.9698 39.7274 15.9696 39.7274 15.9695C39.7274 15.9693 39.7274 15.9692 39.7274 15.969C39.7274 15.9688 39.7274 15.9687 39.7274 15.9685C39.7274 15.9684 39.7274 15.9682 39.7274 15.968C39.7274 15.9679 39.7274 15.9677 39.7274 15.9676C39.7274 15.9674 39.7274 15.9673 39.7274 15.9671C39.7274 15.9669 39.7274 15.9668 39.7274 15.9666C39.7274 15.9665 39.7274 15.9663 39.7274 15.9661C39.7274 15.966 39.7274 15.9658 39.7274 15.9657C39.7274 15.9655 39.7274 15.9654 39.7274 15.9652C39.7274 15.965 39.7274 15.9649 39.7274 15.9647C39.7274 15.9646 39.7274 15.9644 39.7274 15.9642C39.7274 15.9641 39.7274 15.9639 39.7274 15.9638C39.7274 15.9636 39.7274 15.9635 39.7274 15.9633C39.7274 15.9631 39.7274 15.963 39.7274 15.9628C39.7274 15.9627 39.7274 15.9625 39.7274 15.9624C39.7274 15.9622 39.7274 15.962 39.7274 15.9619C39.7274 15.9617 39.7274 15.9616 39.7274 15.9614C39.7274 15.9613 39.7274 15.9611 39.7274 15.9609C39.7274 15.9608 39.7274 15.9606 39.7274 15.9605C39.7274 15.9603 39.7274 15.9602 39.7274 15.96C39.7274 15.9598 39.7274 15.9597 39.7274 15.9595C39.7274 15.9594 39.7274 15.9592 39.7274 15.9591C39.7274 15.9589 39.7274 15.9587 39.7274 15.9586C39.7274 15.9584 39.7274 15.9583 39.7274 15.9581C39.7274 15.958 39.7274 15.9578 39.7274 15.9576C39.7274 15.9575 39.7274 15.9573 39.7274 15.9572C39.7274 15.957 39.7274 15.9569 39.7274 15.9567C39.7274 15.9565 39.7274 15.9564 39.7274 15.9562C39.7274 15.9561 39.7274 15.9559 39.7274 15.9558C39.7274 15.9556 39.7274 15.9554 39.7274 15.9553C39.7274 15.9551 39.7274 15.955 39.7274 15.9548C39.7274 15.9547 39.7274 15.9545 39.7274 15.9543C39.7274 15.9542 39.7274 15.954 39.7274 15.9539C39.7274 15.9537 39.7274 15.9536 39.7274 15.9534C39.7274 15.9533 39.7274 15.9531 39.7274 15.9529C39.7274 15.9528 39.7274 15.9526 39.7274 15.9525C39.7274 15.9523 39.7274 15.9522 39.7274 15.952H37.7274ZM38.7274 15.216H27.7594V17.216H38.7274V15.216ZM28.7594 16.216V14.944H26.7594V16.216H28.7594ZM27.7594 15.944H37.8154V13.944H27.7594V15.944ZM37.2154 14.144L36.5434 14.648L37.7434 16.248L38.4154 15.744L37.2154 14.144ZM38.1434 15.448C38.1434 14.3851 37.9088 13.4028 37.4128 12.53L35.6739 13.518C35.978 14.0532 36.1434 14.6869 36.1434 15.448H38.1434ZM37.4257 12.5534C36.9598 11.6798 36.3066 10.9822 35.4709 10.4847L34.4479 12.2033C34.9562 12.5058 35.359 12.9282 35.661 13.4946L37.4257 12.5534ZM35.4709 10.4847C34.6254 9.98148 33.6683 9.744 32.6314 9.744V11.744C33.3544 11.744 33.9493 11.9065 34.4479 12.2033L35.4709 10.4847ZM32.6314 9.744C31.6064 9.744 30.6543 9.98322 29.8008 10.4795L30.806 12.2085C31.3284 11.9048 31.9283 11.744 32.6314 11.744V9.744ZM29.8008 10.4795C28.9478 10.9754 28.2822 11.6737 27.813 12.5534L29.5777 13.4946C29.8766 12.9343 30.283 12.5126 30.806 12.2085L29.8008 10.4795ZM27.813 12.5534C27.3417 13.4371 27.1194 14.4266 27.1194 15.496H29.1194C29.1194 14.7094 29.281 14.0509 29.5777 13.4946L27.813 12.5534ZM27.1194 15.496V15.76H29.1194V15.496H27.1194ZM27.1194 15.76C27.1194 16.8687 27.361 17.8905 27.8728 18.7961L29.6139 17.8119C29.2937 17.2455 29.1194 16.5713 29.1194 15.76H27.1194ZM27.8859 18.8185C28.4107 19.6931 29.1331 20.3839 30.0353 20.883L31.0034 19.133C30.4017 18.8001 29.9401 18.3549 29.6009 17.7895L27.8859 18.8185ZM30.0574 20.8949C30.9854 21.3782 32.0192 21.608 33.1354 21.608V19.608C32.2995 19.608 31.5894 19.4378 30.9813 19.1211L30.0574 20.8949ZM33.1354 21.608C34.024 21.608 34.8674 21.4501 35.6544 21.1237L34.8884 19.2763C34.3634 19.4939 33.7827 19.608 33.1354 19.608V21.608ZM35.6466 21.1269C36.4695 20.7939 37.1764 20.282 37.7586 19.6028L36.2401 18.3012C35.8623 18.742 35.4173 19.0621 34.8962 19.2731L35.6466 21.1269ZM36.2448 19.6082L37.2048 20.7122L38.714 19.3998L37.754 18.2958L36.2448 19.6082ZM37.1912 19.4158C36.7398 19.9574 36.1703 20.3752 35.464 20.6684L36.2308 22.5156C37.2204 22.1048 38.0589 21.4986 38.7276 20.6962L37.1912 19.4158ZM35.4577 20.671C34.7625 20.9652 33.977 21.12 33.0874 21.12V23.12C34.2137 23.12 35.2682 22.9228 36.237 22.513L35.4577 20.671ZM45.7477 21.376L45.2448 22.2404L45.2567 22.2472L45.7477 21.376ZM43.6598 19.168L44.5421 18.6974V18.6974L43.6598 19.168ZM43.6598 12.208L42.7835 11.7261L42.7807 11.7312L43.6598 12.208ZM45.7718 10.024L46.2628 10.8952L45.7718 10.024ZM51.9398 10.096L51.4405 10.9624L51.4491 10.9674L51.4578 10.9722L51.9398 10.096ZM54.1958 12.328L55.0658 11.835L54.1958 12.328ZM54.1958 19.048L55.0658 19.541L55.0692 19.5349L54.1958 19.048ZM51.9398 21.304L51.4467 20.434L51.4405 20.4376L51.9398 21.304ZM42.2197 22H41.2197V23H42.2197V22ZM42.2197 4.192V3.192H41.2197V4.192H42.2197ZM43.9238 4.192H44.9238V3.192H43.9238V4.192ZM43.9238 13.12L44.9193 13.2139L44.9238 13.1671V13.12H43.9238ZM43.6838 15.664L42.6882 15.5701L42.6806 15.6499L42.6859 15.7299L43.6838 15.664ZM43.8517 18.208H44.8517V18.175L44.8496 18.1421L43.8517 18.208ZM43.8517 22V23H44.8517V22H43.8517ZM51.0037 20.008L51.4978 20.8775L51.5052 20.8733L51.5125 20.8689L51.0037 20.008ZM52.6838 18.28L53.5543 18.7721L53.5588 18.7641L52.6838 18.28ZM51.0037 11.392L50.495 12.2529L50.5023 12.2573L50.5097 12.2615L51.0037 11.392ZM46.1797 11.392L46.6738 12.2615L46.68 12.2579L46.1797 11.392ZM44.4997 13.096L43.6292 12.6039L43.6251 12.6112L43.6211 12.6185L44.4997 13.096ZM44.4997 18.28L43.6169 18.7496L43.6229 18.7609L43.6292 18.7721L44.4997 18.28ZM46.1797 20.008L45.671 20.8689L45.6825 20.8757L45.6941 20.8822L46.1797 20.008ZM48.7238 21.12C47.7754 21.12 46.9552 20.9087 46.2388 20.5048L45.2567 22.2472C46.3003 22.8353 47.4641 23.12 48.7238 23.12V21.12ZM46.2506 20.5117C45.5424 20.0996 44.9729 19.5052 44.5421 18.6974L42.7774 19.6386C43.3706 20.7508 44.1931 21.6284 45.2449 22.2403L46.2506 20.5117ZM44.5421 18.6974C44.1243 17.914 43.8918 16.9241 43.8918 15.688H41.8918C41.8918 17.1719 42.1712 18.502 42.7774 19.6386L44.5421 18.6974ZM43.8918 15.688C43.8918 14.4328 44.1254 13.4469 44.5388 12.6848L42.7807 11.7312C42.1701 12.8571 41.8918 14.1912 41.8918 15.688H43.8918ZM44.536 12.6899C44.9822 11.8787 45.5585 11.2921 46.2628 10.8952L45.2807 9.15285C44.2249 9.74793 43.3933 10.6173 42.7835 11.7261L44.536 12.6899ZM46.2628 10.8952C46.9814 10.4901 47.7941 10.28 48.7238 10.28V8.28C47.4774 8.28 46.3221 8.56591 45.2807 9.15285L46.2628 10.8952ZM48.7238 10.28C49.7667 10.28 50.6634 10.5146 51.4405 10.9624L52.439 9.22957C51.3281 8.58938 50.0808 8.28 48.7238 8.28V10.28ZM51.4578 10.9722C52.2542 11.4102 52.8724 12.021 53.3257 12.821L55.0658 11.835C54.4311 10.715 53.5453 9.83776 52.4217 9.21978L51.4578 10.9722ZM53.3257 12.821C53.7717 13.6081 54.0117 14.5529 54.0117 15.688H56.0117C56.0117 14.2631 55.7078 12.9679 55.0658 11.835L53.3257 12.821ZM54.0117 15.688C54.0117 16.8043 53.7729 17.7527 53.3223 18.5611L55.0692 19.5349C55.7066 18.3913 56.0117 17.0997 56.0117 15.688H54.0117ZM53.3257 18.555C52.871 19.3575 52.2493 19.9792 51.4467 20.434L52.4328 22.174C53.5502 21.5408 54.4325 20.6585 55.0658 19.541L53.3257 18.555ZM51.4405 20.4376C50.6634 20.8854 49.7667 21.12 48.7238 21.12V23.12C50.0808 23.12 51.3281 22.8106 52.439 22.1704L51.4405 20.4376ZM43.2197 22V4.192H41.2197V22H43.2197ZM42.2197 5.192H43.9238V3.192H42.2197V5.192ZM42.9238 4.192V13.12H44.9238V4.192H42.9238ZM42.9282 13.0261L42.6882 15.5701L44.6793 15.7579L44.9193 13.2139L42.9282 13.0261ZM42.6859 15.7299L42.8539 18.2739L44.8496 18.1421L44.6816 15.5981L42.6859 15.7299ZM42.8517 18.208V22H44.8517V18.208H42.8517ZM43.8517 21H42.2197V23H43.8517V21ZM48.6038 21.608C49.654 21.608 50.6275 21.3719 51.4978 20.8775L50.5097 19.1385C49.972 19.4441 49.3455 19.608 48.6038 19.608V21.608ZM51.5125 20.8689C52.3726 20.3607 53.0551 19.6552 53.5543 18.7721L51.8132 17.7879C51.4804 18.3768 51.0429 18.8233 50.495 19.1471L51.5125 20.8689ZM53.5588 18.7641C54.0673 17.8448 54.3078 16.81 54.3078 15.688H52.3078C52.3078 16.518 52.1322 17.2112 51.8087 17.7959L53.5588 18.7641ZM54.3078 15.688C54.3078 14.5536 54.0688 13.5142 53.5543 12.6039L51.8132 13.5881C52.1307 14.1498 52.3078 14.8384 52.3078 15.688H54.3078ZM53.5543 12.6039C53.0534 11.7177 52.3662 11.016 51.4978 10.5225L50.5097 12.2615C51.0493 12.568 51.4821 13.0023 51.8132 13.5881L53.5543 12.6039ZM51.5125 10.5311C50.6399 10.0154 49.6611 9.768 48.6038 9.768V11.768C49.3384 11.768 49.9596 11.9366 50.495 12.2529L51.5125 10.5311ZM48.6038 9.768C47.5462 9.768 46.5633 10.0155 45.6795 10.5261L46.68 12.2579C47.2362 11.9365 47.8693 11.768 48.6038 11.768V9.768ZM45.6857 10.5225C44.8173 11.016 44.1301 11.7177 43.6292 12.6039L45.3703 13.5881C45.7014 13.0023 46.1342 12.568 46.6738 12.2615L45.6857 10.5225ZM43.6211 12.6185C43.128 13.5259 42.8997 14.5599 42.8997 15.688H44.8997C44.8997 14.8321 45.0715 14.1381 45.3784 13.5735L43.6211 12.6185ZM42.8997 15.688C42.8997 16.8037 43.1294 17.8332 43.6169 18.7496L45.3826 17.8104C45.0701 17.2228 44.8997 16.5243 44.8997 15.688H42.8997ZM43.6292 18.7721C44.1283 19.6552 44.8109 20.3607 45.671 20.8689L46.6885 19.1471C46.1406 18.8233 45.7032 18.3768 45.3703 17.7879L43.6292 18.7721ZM45.6941 20.8822C46.5755 21.3718 47.5531 21.608 48.6038 21.608V19.608C47.8624 19.608 47.224 19.4442 46.6654 19.1338L45.6941 20.8822Z" fill="white" mask="url(#path-1-outside-1_47_15)"/>
<path d="M2.736 56V39.2H9.576C11.368 39.2 12.936 39.56 14.28 40.28C15.64 40.984 16.696 41.968 17.448 43.232C18.2 44.496 18.576 45.952 18.576 47.6C18.576 49.248 18.2 50.704 17.448 51.968C16.696 53.232 15.64 54.224 14.28 54.944C12.936 55.648 11.368 56 9.576 56H2.736ZM4.512 54.464H9.48C10.968 54.464 12.256 54.176 13.344 53.6C14.448 53.008 15.304 52.2 15.912 51.176C16.52 50.136 16.824 48.944 16.824 47.6C16.824 46.24 16.52 45.048 15.912 44.024C15.304 43 14.448 42.2 13.344 41.624C12.256 41.032 10.968 40.736 9.48 40.736H4.512V54.464ZM27.5561 56.12C26.2441 56.12 25.0921 55.848 24.1001 55.304C23.1081 54.744 22.3321 53.984 21.7721 53.024C21.2121 52.048 20.9321 50.936 20.9321 49.688C20.9321 48.44 21.1961 47.336 21.7241 46.376C22.2681 45.416 23.0041 44.664 23.9321 44.12C24.8761 43.56 25.9321 43.28 27.1001 43.28C28.2841 43.28 29.3321 43.552 30.2441 44.096C31.1721 44.624 31.9001 45.376 32.4281 46.352C32.9561 47.312 33.2201 48.424 33.2201 49.688C33.2201 49.768 33.2121 49.856 33.1961 49.952C33.1961 50.032 33.1961 50.12 33.1961 50.216H22.2281V48.944H32.2841L31.6121 49.448C31.6121 48.536 31.4121 47.728 31.0121 47.024C30.6281 46.304 30.1001 45.744 29.4281 45.344C28.7561 44.944 27.9801 44.744 27.1001 44.744C26.2361 44.744 25.4601 44.944 24.7721 45.344C24.0841 45.744 23.5481 46.304 23.1641 47.024C22.7801 47.744 22.5881 48.568 22.5881 49.496V49.76C22.5881 50.72 22.7961 51.568 23.2121 52.304C23.6441 53.024 24.2361 53.592 24.9881 54.008C25.7561 54.408 26.6281 54.608 27.6041 54.608C28.3721 54.608 29.0841 54.472 29.7401 54.2C30.4121 53.928 30.9881 53.512 31.4681 52.952L32.4281 54.056C31.8681 54.728 31.1641 55.24 30.3161 55.592C29.4841 55.944 28.5641 56.12 27.5561 56.12ZM39.6941 56L34.1021 43.4H35.8781L41.0141 55.088H40.1741L45.3821 43.4H47.0621L41.4461 56H39.6941ZM54.4624 56.12C53.1504 56.12 51.9984 55.848 51.0064 55.304C50.0144 54.744 49.2384 53.984 48.6784 53.024C48.1184 52.048 47.8384 50.936 47.8384 49.688C47.8384 48.44 48.1024 47.336 48.6304 46.376C49.1744 45.416 49.9104 44.664 50.8384 44.12C51.7824 43.56 52.8384 43.28 54.0064 43.28C55.1904 43.28 56.2384 43.552 57.1504 44.096C58.0784 44.624 58.8064 45.376 59.3344 46.352C59.8624 47.312 60.1264 48.424 60.1264 49.688C60.1264 49.768 60.1184 49.856 60.1024 49.952C60.1024 50.032 60.1024 50.12 60.1024 50.216H49.1344V48.944H59.1904L58.5184 49.448C58.5184 48.536 58.3184 47.728 57.9184 47.024C57.5344 46.304 57.0064 45.744 56.3344 45.344C55.6624 44.944 54.8864 44.744 54.0064 44.744C53.1424 44.744 52.3664 44.944 51.6784 45.344C50.9904 45.744 50.4544 46.304 50.0704 47.024C49.6864 47.744 49.4944 48.568 49.4944 49.496V49.76C49.4944 50.72 49.7024 51.568 50.1184 52.304C50.5504 53.024 51.1424 53.592 51.8944 54.008C52.6624 54.408 53.5344 54.608 54.5104 54.608C55.2784 54.608 55.9904 54.472 56.6464 54.2C57.3184 53.928 57.8944 53.512 58.3744 52.952L59.3344 54.056C58.7744 54.728 58.0704 55.24 57.2224 55.592C56.3904 55.944 55.4704 56.12 54.4624 56.12ZM63.5948 56V38.192H65.2988V56H63.5948ZM75.1761 56.12C73.9601 56.12 72.8641 55.848 71.8881 55.304C70.9281 54.744 70.1681 53.984 69.6081 53.024C69.0481 52.048 68.7681 50.936 68.7681 49.688C68.7681 48.424 69.0481 47.312 69.6081 46.352C70.1681 45.392 70.9281 44.64 71.8881 44.096C72.8481 43.552 73.9441 43.28 75.1761 43.28C76.4241 43.28 77.5281 43.552 78.4881 44.096C79.4641 44.64 80.2241 45.392 80.7681 46.352C81.3281 47.312 81.6081 48.424 81.6081 49.688C81.6081 50.936 81.3281 52.048 80.7681 53.024C80.2241 53.984 79.4641 54.744 78.4881 55.304C77.5121 55.848 76.4081 56.12 75.1761 56.12ZM75.1761 54.608C76.0881 54.608 76.8961 54.408 77.6001 54.008C78.3041 53.592 78.8561 53.016 79.2561 52.28C79.6721 51.528 79.8801 50.664 79.8801 49.688C79.8801 48.696 79.6721 47.832 79.2561 47.096C78.8561 46.36 78.3041 45.792 77.6001 45.392C76.8961 44.976 76.0961 44.768 75.2001 44.768C74.3041 44.768 73.5041 44.976 72.8001 45.392C72.0961 45.792 71.5361 46.36 71.1201 47.096C70.7041 47.832 70.4961 48.696 70.4961 49.688C70.4961 50.664 70.7041 51.528 71.1201 52.28C71.5361 53.016 72.0961 53.592 72.8001 54.008C73.5041 54.408 74.2961 54.608 75.1761 54.608ZM91.5909 56.12C90.5029 56.12 89.5189 55.872 88.6389 55.376C87.7589 54.864 87.0549 54.136 86.5269 53.192C86.0149 52.232 85.7589 51.064 85.7589 49.688C85.7589 48.312 86.0149 47.152 86.5269 46.208C87.0389 45.248 87.7349 44.52 88.6149 44.024C89.4949 43.528 90.4869 43.28 91.5909 43.28C92.7909 43.28 93.8629 43.552 94.8069 44.096C95.7669 44.624 96.5189 45.376 97.0629 46.352C97.6069 47.312 97.8789 48.424 97.8789 49.688C97.8789 50.968 97.6069 52.088 97.0629 53.048C96.5189 54.008 95.7669 54.76 94.8069 55.304C93.8629 55.848 92.7909 56.12 91.5909 56.12ZM85.0869 60.656V43.4H86.7189V47.192L86.5509 49.712L86.7909 52.256V60.656H85.0869ZM91.4709 54.608C92.3669 54.608 93.1669 54.408 93.8709 54.008C94.5749 53.592 95.1349 53.016 95.5509 52.28C95.9669 51.528 96.1749 50.664 96.1749 49.688C96.1749 48.712 95.9669 47.856 95.5509 47.12C95.1349 46.384 94.5749 45.808 93.8709 45.392C93.1669 44.976 92.3669 44.768 91.4709 44.768C90.5749 44.768 89.7669 44.976 89.0469 45.392C88.3429 45.808 87.7829 46.384 87.3669 47.12C86.9669 47.856 86.7669 48.712 86.7669 49.688C86.7669 50.664 86.9669 51.528 87.3669 52.28C87.7829 53.016 88.3429 53.592 89.0469 54.008C89.7669 54.408 90.5749 54.608 91.4709 54.608ZM117.097 43.28C118.121 43.28 119.009 43.48 119.761 43.88C120.529 44.264 121.121 44.856 121.537 45.656C121.969 46.456 122.185 47.464 122.185 48.68V56H120.481V48.848C120.481 47.52 120.161 46.52 119.521 45.848C118.897 45.16 118.009 44.816 116.857 44.816C115.993 44.816 115.241 45 114.601 45.368C113.977 45.72 113.489 46.24 113.137 46.928C112.801 47.6 112.633 48.416 112.633 49.376V56H110.929V48.848C110.929 47.52 110.609 46.52 109.969 45.848C109.329 45.16 108.433 44.816 107.281 44.816C106.433 44.816 105.689 45 105.049 45.368C104.409 45.72 103.913 46.24 103.561 46.928C103.225 47.6 103.057 48.416 103.057 49.376V56H101.353V43.4H102.985V46.808L102.721 46.208C103.105 45.296 103.721 44.584 104.569 44.072C105.433 43.544 106.449 43.28 107.617 43.28C108.849 43.28 109.897 43.592 110.761 44.216C111.625 44.824 112.185 45.744 112.441 46.976L111.769 46.712C112.137 45.688 112.785 44.864 113.713 44.24C114.657 43.6 115.785 43.28 117.097 43.28ZM132.158 56.12C130.846 56.12 129.694 55.848 128.702 55.304C127.71 54.744 126.934 53.984 126.374 53.024C125.814 52.048 125.534 50.936 125.534 49.688C125.534 48.44 125.798 47.336 126.326 46.376C126.87 45.416 127.606 44.664 128.534 44.12C129.478 43.56 130.534 43.28 131.702 43.28C132.886 43.28 133.934 43.552 134.846 44.096C135.774 44.624 136.502 45.376 137.03 46.352C137.558 47.312 137.822 48.424 137.822 49.688C137.822 49.768 137.814 49.856 137.798 49.952C137.798 50.032 137.798 50.12 137.798 50.216H126.83V48.944H136.886L136.214 49.448C136.214 48.536 136.014 47.728 135.614 47.024C135.23 46.304 134.702 45.744 134.03 45.344C133.358 44.944 132.582 44.744 131.702 44.744C130.838 44.744 130.062 44.944 129.374 45.344C128.686 45.744 128.15 46.304 127.766 47.024C127.382 47.744 127.19 48.568 127.19 49.496V49.76C127.19 50.72 127.398 51.568 127.814 52.304C128.246 53.024 128.838 53.592 129.59 54.008C130.358 54.408 131.23 54.608 132.206 54.608C132.974 54.608 133.686 54.472 134.342 54.2C135.014 53.928 135.59 53.512 136.07 52.952L137.03 54.056C136.47 54.728 135.766 55.24 134.918 55.592C134.086 55.944 133.166 56.12 132.158 56.12ZM147.722 43.28C148.746 43.28 149.642 43.48 150.41 43.88C151.194 44.264 151.802 44.856 152.234 45.656C152.682 46.456 152.906 47.464 152.906 48.68V56H151.202V48.848C151.202 47.52 150.866 46.52 150.194 45.848C149.538 45.16 148.61 44.816 147.41 44.816C146.514 44.816 145.73 45 145.058 45.368C144.402 45.72 143.89 46.24 143.522 46.928C143.17 47.6 142.994 48.416 142.994 49.376V56H141.29V43.4H142.922V46.856L142.658 46.208C143.058 45.296 143.698 44.584 144.578 44.072C145.458 43.544 146.506 43.28 147.722 43.28ZM161.493 56.12C160.309 56.12 159.397 55.8 158.757 55.16C158.117 54.52 157.797 53.616 157.797 52.448V40.616H159.501V52.352C159.501 53.088 159.685 53.656 160.053 54.056C160.437 54.456 160.981 54.656 161.685 54.656C162.437 54.656 163.061 54.44 163.557 54.008L164.157 55.232C163.821 55.536 163.413 55.76 162.933 55.904C162.469 56.048 161.989 56.12 161.493 56.12ZM155.541 44.816V43.4H163.341V44.816H155.541Z" fill="white"/>
<path d="M160.707 31.7071C161.098 31.3166 161.098 30.6834 160.707 30.2929L154.343 23.9289C153.953 23.5384 153.319 23.5384 152.929 23.9289C152.538 24.3195 152.538 24.9526 152.929 25.3431L158.586 31L152.929 36.6569C152.538 37.0474 152.538 37.6805 152.929 38.0711C153.319 38.4616 153.953 38.4616 154.343 38.0711L160.707 31.7071ZM6 32H160V30H6V32Z" fill="white"/>
</svg>
