<svg width="509" height="519" viewBox="0 0 509 519" fill="none" xmlns="http://www.w3.org/2000/svg">
<rect x="1" width="508" height="519" rx="32" fill="#305270"/>
<line x1="57.5" x2="57.5" y2="519" stroke="#6C7D47" stroke-opacity="0.5"/>
<path d="M195.7 69.7144C196.094 69.3279 196.101 68.6947 195.714 68.3002L189.416 61.871C189.03 61.4765 188.397 61.4699 188.002 61.8564C187.608 62.2429 187.601 62.876 187.988 63.2706L193.586 68.9854L187.871 74.5837C187.476 74.9701 187.47 75.6033 187.856 75.9978C188.243 76.3923 188.876 76.3989 189.271 76.0124L195.7 69.7144ZM0.989691 67.9999L194.99 69.9999L195.01 68.0001L1.01031 66.0001L0.989691 67.9999Z" fill="#6C7D47"/>
<rect x="439" width="16" height="519" fill="#6C7D47" fill-opacity="0.5"/>
</svg>
